<?xml version="1.0" standalone="no"?>
<!DOCTYPE svg PUBLIC "-//W3C//DTD SVG 20010904//EN"
 "http://www.w3.org/TR/2001/REC-SVG-20010904/DTD/svg10.dtd">
<svg version="1.0" xmlns="http://www.w3.org/2000/svg"
 width="1283.000000pt" height="518.000000pt" viewBox="0 0 1283.000000 518.000000"
 preserveAspectRatio="xMidYMid meet">

<g transform="translate(0.000000,518.000000) scale(0.100000,-0.100000)"
fill="#000000" stroke="none">
<path d="M11009 5033 c-128 -97 -419 -278 -520 -325 -100 -47 -209 -90 -300
-118 l-101 -32 6 -31 c10 -51 17 -53 129 -28 102 23 212 61 405 142 l104 43
20 -24 c41 -52 127 -188 161 -255 67 -134 127 -310 231 -675 31 -107 63 -219
72 -248 9 -29 17 -67 18 -84 1 -30 0 -31 -63 -44 -80 -17 -153 -52 -210 -100
-46 -40 -131 -150 -131 -170 0 -6 -7 -17 -15 -24 -15 -13 -38 -57 -65 -130 -7
-19 -17 -39 -22 -44 -4 -6 -8 -18 -8 -28 0 -10 -6 -27 -12 -38 -11 -16 -9 -22
7 -34 11 -9 28 -16 38 -16 21 0 77 30 77 42 0 4 5 8 11 8 6 0 34 15 62 34 93
61 120 68 272 73 115 4 138 3 128 -8 -7 -7 -13 -21 -13 -30 0 -9 -7 -22 -15
-29 -8 -7 -15 -21 -15 -32 0 -11 -6 -32 -13 -46 -8 -15 -21 -43 -29 -62 -8
-19 -24 -55 -36 -80 -12 -25 -22 -53 -22 -62 0 -9 -4 -19 -9 -23 -5 -3 -17
-29 -26 -58 -10 -28 -28 -75 -41 -104 -13 -28 -24 -58 -24 -65 0 -8 -6 -22
-13 -33 -7 -11 -19 -40 -27 -65 -7 -25 -16 -49 -19 -55 -3 -5 -6 -12 -7 -15 0
-3 -11 -27 -23 -55 -13 -27 -30 -70 -38 -95 -8 -25 -24 -63 -34 -85 -10 -22
-23 -58 -28 -80 -20 -72 -12 -70 -203 -71 -186 0 -232 -8 -388 -62 -201 -69
-396 -203 -526 -360 -70 -86 -149 -246 -163 -333 -55 -335 114 -633 470 -827
116 -64 233 -102 384 -124 72 -10 436 -4 489 8 27 6 28 9 23 51 -2 24 -7 46
-9 49 -3 2 -72 -1 -155 -8 -132 -10 -166 -9 -274 6 -270 38 -415 98 -585 242
-76 65 -111 102 -135 145 -9 16 -21 34 -26 41 -24 30 -62 149 -73 226 -23 155
21 318 114 419 76 83 167 128 324 159 151 29 452 12 602 -35 79 -25 197 -91
285 -160 35 -28 68 -51 72 -51 5 0 34 33 67 74 79 101 220 236 341 325 55 41
117 87 137 102 49 38 66 37 84 -9 79 -190 266 -501 302 -502 12 0 163 111 201
148 40 39 257 151 409 213 78 31 83 35 77 59 -4 14 -11 29 -16 35 -11 11 -142
-30 -262 -81 -43 -19 -83 -34 -88 -34 -5 0 -31 46 -58 103 -46 96 -67 149
-121 307 -12 36 -28 78 -36 93 -8 16 -14 37 -14 47 0 10 -4 21 -9 24 -5 4 -12
25 -16 49 -4 23 -11 47 -15 52 -4 6 -12 28 -18 50 -5 22 -29 105 -52 185 -23
80 -48 168 -55 195 -7 28 -32 113 -54 190 -22 77 -41 143 -41 148 0 4 15 7 33
7 54 0 159 26 217 53 98 47 182 152 253 317 52 121 54 133 22 150 -23 12 -29
12 -53 -3 -15 -10 -54 -32 -87 -49 -58 -31 -64 -32 -205 -35 -80 -2 -181 0
-224 4 l-79 8 -19 69 -20 68 173 412 c94 226 182 434 195 462 l23 50 71 11
c82 13 210 70 292 131 122 90 234 243 252 343 9 49 -1 69 -33 69 -21 0 -34
-11 -61 -52 -59 -89 -136 -128 -252 -128 -58 0 -71 4 -124 38 -33 21 -82 65
-110 97 l-51 57 -109 -97 c-60 -54 -153 -132 -208 -174 -224 -173 -318 -242
-328 -239 -5 2 -26 42 -46 88 -21 47 -50 110 -67 140 -16 30 -41 76 -55 102
-43 82 -155 243 -171 246 -8 1 -44 -19 -80 -45z m18 -233 c40 -49 71 -97 117
-184 123 -234 188 -434 346 -1065 49 -194 91 -356 94 -359 4 -3 100 -7 216
-10 195 -4 229 -2 363 24 19 4 27 1 27 -8 0 -27 -89 -105 -156 -138 l-69 -34
-163 -2 c-89 -1 -165 -3 -167 -6 -3 -3 6 -52 20 -109 39 -159 82 -327 100
-394 10 -33 21 -76 24 -95 4 -19 15 -55 23 -80 9 -25 24 -74 33 -110 9 -36 23
-81 30 -100 7 -19 27 -82 46 -140 18 -58 36 -112 40 -120 4 -8 14 -40 24 -70
9 -30 22 -66 28 -80 18 -41 132 -242 161 -284 14 -21 26 -42 26 -46 0 -11
-134 -100 -151 -100 -8 0 -39 36 -68 80 -118 179 -215 405 -263 615 -11 50
-24 99 -29 110 -4 11 -17 65 -29 120 -11 55 -25 115 -31 132 -6 18 -14 54 -19
80 -22 118 -70 305 -116 456 -13 43 -24 88 -24 101 0 45 -20 50 -194 50 -155
0 -165 -1 -255 -32 -52 -18 -96 -32 -98 -32 -2 0 9 19 25 43 35 51 108 119
150 141 39 20 140 36 235 36 59 0 77 3 77 14 0 8 -11 54 -25 102 -14 49 -44
154 -66 234 -23 80 -70 237 -105 350 -132 429 -184 557 -297 724 -37 54 -70
102 -73 107 -5 9 134 108 154 108 7 1 25 -13 39 -29z m991 -69 c61 -48 123
-64 245 -63 59 0 107 -1 107 -3 0 -11 -127 -89 -167 -102 -71 -24 -212 -14
-283 21 -62 31 -106 63 -97 73 25 24 135 102 145 103 7 0 30 -13 50 -29z
m-225 -210 c45 -22 99 -42 120 -46 41 -8 45 -19 23 -68 -8 -18 -44 -104 -80
-192 -35 -88 -90 -221 -121 -295 -31 -74 -59 -143 -62 -152 -10 -31 -30 -19
-42 25 -79 299 -118 437 -143 511 -16 48 -26 92 -21 96 16 16 228 159 236 160
5 0 45 -18 90 -39z m-373 -1848 c6 -32 18 -75 26 -96 8 -20 14 -46 14 -57 0
-11 9 -46 19 -77 11 -32 22 -76 26 -98 10 -61 78 -297 131 -454 14 -40 23 -79
20 -87 -3 -8 -45 -40 -93 -71 -48 -31 -116 -80 -151 -110 -35 -29 -66 -53 -71
-53 -4 0 -59 26 -123 59 -64 32 -147 69 -184 81 -38 12 -73 26 -77 30 -9 8 11
53 134 316 10 23 19 45 19 49 0 4 10 21 22 38 13 18 22 34 21 37 -4 8 7 41 28
88 10 23 28 61 38 85 10 23 33 73 50 110 17 37 31 73 31 78 0 6 6 23 13 37 8
15 21 42 30 60 9 19 17 40 17 47 0 15 26 45 39 45 4 0 14 -26 21 -57z m-571
-1094 c116 -30 303 -126 317 -163 5 -14 -80 -136 -95 -136 -4 0 -23 12 -42 26
-45 34 -171 97 -245 124 -147 52 -351 82 -495 73 -105 -7 -108 8 -9 46 162 62
396 74 569 30z"/>
<path d="M4626 5032 c-22 -43 -21 -46 28 -77 77 -49 75 -30 79 -635 5 -685 -3
-1000 -27 -1055 -21 -49 -14 -104 20 -155 88 -132 113 -148 199 -136 88 14
104 76 80 306 -17 164 -21 790 -6 790 26 0 173 -114 262 -203 118 -118 143
-137 185 -137 91 0 174 169 127 260 -48 92 -210 156 -488 193 l-90 12 -2 240
c-1 132 3 285 9 340 6 55 11 120 12 144 1 43 0 45 -44 68 -63 32 -165 60 -253
68 l-75 7 -16 -30z"/>
<path d="M5468 4765 c-32 -27 -35 -47 -12 -66 40 -33 126 -181 139 -237 3 -17
10 -34 15 -37 17 -11 101 28 130 61 72 83 11 200 -145 275 -73 35 -92 36 -127
4z"/>
<path d="M7670 4674 c-16 -41 -12 -50 30 -78 55 -36 67 -59 85 -156 9 -47 23
-114 31 -149 9 -35 12 -67 7 -71 -12 -11 -203 -30 -306 -30 -80 0 -98 4 -136
25 -23 14 -47 25 -52 25 -5 0 -16 -15 -25 -33 l-16 -33 66 -96 c37 -52 77
-100 89 -107 19 -10 48 -6 172 23 83 19 165 36 184 38 43 4 46 -6 56 -174 l7
-124 -63 -12 c-150 -27 -388 -54 -437 -49 -29 3 -72 15 -95 27 l-41 22 -18
-22 c-10 -12 -18 -28 -18 -36 0 -31 148 -219 186 -236 18 -8 48 -4 136 21 128
35 299 71 341 71 l27 0 2 -157 c3 -204 3 -210 -7 -326 -6 -76 -5 -104 6 -125
47 -92 121 -152 189 -152 48 0 67 13 98 68 12 22 19 192 9 209 -18 29 -64 510
-51 523 11 11 396 50 492 50 117 0 162 29 162 104 0 60 -73 124 -185 162 l-47
17 -72 -37 c-59 -31 -100 -42 -220 -63 -84 -15 -151 -22 -156 -17 -8 9 -31
285 -24 293 2 2 93 15 201 28 214 25 256 35 291 66 46 42 15 113 -73 166 -61
37 -84 38 -133 7 -57 -37 -285 -95 -298 -75 -3 5 -9 77 -15 161 -12 194 -20
225 -63 243 -38 16 -176 35 -253 35 -48 0 -54 -3 -63 -26z"/>
<path d="M6595 4644 c-84 -35 -220 -57 -361 -58 -117 -1 -121 0 -157 27 -43
33 -48 33 -75 4 l-22 -24 36 -74 c45 -90 86 -145 125 -164 25 -14 41 -13 151
4 68 11 182 25 253 32 197 17 287 35 308 60 43 52 2 133 -97 189 -62 36 -83
36 -161 4z"/>
<path d="M5223 4619 l-31 -32 35 -64 c20 -35 48 -103 64 -151 l28 -87 35 2
c46 3 108 35 136 70 33 42 24 109 -22 165 -31 38 -175 128 -204 128 -5 0 -23
-14 -41 -31z"/>
<path d="M1241 4415 l-34 -65 -543 0 c-429 0 -544 -3 -544 -12 0 -7 3 -23 6
-35 6 -22 9 -23 193 -25 l186 -3 3 -73 3 -74 -53 5 c-29 2 -93 12 -143 21 -49
9 -93 16 -97 16 -5 0 -8 -85 -8 -190 0 -183 1 -190 21 -201 32 -16 142 -2 173
22 18 14 37 19 63 17 l38 -3 0 -90 0 -90 -198 -3 -198 -2 3 -33 3 -32 675 -5
c371 -3 681 -3 688 -1 6 2 12 9 12 16 0 11 -82 96 -144 147 -29 24 -29 48 -1
48 25 0 35 37 35 132 0 93 0 95 30 116 17 13 30 29 30 37 0 16 -191 155 -213
155 -8 0 -20 -14 -27 -31 -19 -44 -37 -59 -74 -59 -50 0 -59 18 -49 92 l8 63
185 -3 c107 -2 191 1 199 7 11 7 12 15 5 29 -10 22 -178 172 -192 172 -4 0
-23 -29 -41 -65z m-428 -141 l37 -7 0 -68 0 -69 -60 0 -60 0 0 68 c0 38 3 72
7 75 8 9 27 9 76 1z m-308 -299 l0 -80 -45 0 -45 0 -3 69 c-4 93 -1 98 50 94
l43 -3 0 -80z m345 -5 l0 -80 -60 0 -60 0 0 80 0 80 60 0 60 0 0 -80z m320 -1
l0 -80 -47 3 -48 3 -3 78 -3 77 51 0 50 0 0 -81z m-320 -244 l0 -95 -60 0 -60
0 0 88 c0 49 3 92 7 95 3 4 30 7 60 7 l53 0 0 -95z m323 66 c6 -30 27 -41 85
-41 17 0 32 -4 32 -10 0 -5 -14 -32 -31 -60 l-31 -50 -79 0 -79 0 0 88 c0 49
3 92 7 95 3 4 25 7 48 7 39 0 43 -3 48 -29z"/>
<path d="M2190 4380 l0 -71 -167 4 c-105 2 -194 10 -238 20 -38 9 -82 16 -96
17 l-26 0 -6 -422 c-7 -528 -22 -707 -74 -876 -25 -79 -25 -83 -8 -102 27 -30
49 -24 82 23 31 44 92 173 113 242 7 22 17 51 21 65 24 73 59 348 59 468 0 41
3 52 16 52 18 0 63 29 118 78 21 19 42 30 46 25 5 -4 10 -26 12 -48 l3 -40 58
-3 c85 -4 107 12 107 83 0 29 4 56 9 60 5 3 20 -13 32 -35 21 -37 26 -40 53
-34 27 6 29 5 17 -10 -7 -9 -22 -16 -32 -16 -18 0 -23 -16 -31 -90 -3 -24 -6
-25 -73 -24 -38 0 -118 4 -177 9 l-108 8 -1 -179 c-2 -276 -5 -264 80 -264 76
0 128 16 136 41 6 18 14 19 98 17 l92 -3 -4 -181 c-4 -201 -4 -202 64 -237 45
-22 81 -27 277 -32 195 -4 254 4 306 46 26 20 31 31 31 67 1 41 -1 43 -43 62
-51 22 -65 38 -39 47 64 22 70 74 15 136 l-37 42 3 128 4 127 29 15 c59 31 40
55 -119 156 l-84 52 -25 -31 -24 -32 -105 0 c-80 0 -104 3 -104 13 0 8 11 19
25 25 31 14 33 40 3 46 -83 17 -84 17 -64 30 10 6 41 26 68 44 28 17 54 32 59
32 4 0 9 -26 11 -57 l3 -58 65 -3 c87 -4 100 7 107 86 3 34 9 62 13 62 5 0 18
-16 29 -36 36 -60 103 -134 122 -134 13 0 22 14 33 49 8 28 25 64 37 81 26 34
23 38 -41 65 -67 28 -150 76 -150 86 0 5 38 9 85 9 113 0 120 14 44 81 -30 27
-59 49 -65 49 -6 0 -17 -13 -24 -30 -10 -25 -18 -30 -46 -30 -29 0 -34 4 -34
23 1 39 46 61 135 67 61 4 80 9 83 20 3 17 -169 170 -191 170 -7 0 -26 -27
-42 -60 l-29 -60 -123 0 c-110 0 -123 2 -123 18 0 9 14 25 30 34 32 18 38 39
17 56 -13 11 -177 32 -252 32 l-45 0 0 -70z m-155 -185 l0 -40 -90 0 -90 0 -3
28 c-6 55 0 58 95 55 l88 -3 0 -40z m510 0 l0 -40 -105 -5 c-98 -5 -106 -4
-131 18 -31 26 -47 28 -55 7 -10 -24 -34 -18 -34 9 0 48 31 57 185 54 l140 -3
0 -40z m-96 -121 c6 -6 -34 -85 -62 -120 -24 -31 -41 -31 -33 0 8 33 -19 62
-79 85 -67 25 -68 39 -3 44 60 5 169 0 177 -9z m-489 -6 c-1 -41 -80 -188
-101 -188 -5 0 -9 45 -9 100 l0 100 55 0 c37 0 55 -4 55 -12z m308 -430 l3
-38 -75 0 -76 0 0 33 c0 19 3 37 7 41 4 4 37 6 73 4 l65 -3 3 -37z m380 30 c5
-7 9 -24 7 -38 -2 -24 -4 -25 -88 -28 l-87 -3 0 34 c0 18 3 37 7 40 12 13 150
8 161 -5z m-380 -180 l-3 -43 -70 0 -70 0 -3 43 -3 42 76 0 76 0 -3 -42z m382
-3 l0 -45 -85 0 -85 0 0 45 0 45 85 0 85 0 0 -45z m-78 -154 c-5 -68 -18 -93
-45 -89 -18 2 -23 10 -25 47 -5 74 3 93 41 89 31 -3 32 -4 29 -47z m186 -43
c24 -24 13 -38 -28 -38 -44 0 -48 5 -23 32 19 21 34 23 51 6z m42 -123 c0 -8
-9 -24 -20 -35 -18 -18 -33 -20 -129 -20 -60 0 -116 3 -125 6 -31 12 -15 22
47 28 34 4 87 13 117 20 77 19 110 19 110 1z"/>
<path d="M3970 4325 l0 -125 -114 0 c-69 0 -161 8 -232 20 -64 11 -119 18
-122 15 -3 -3 -6 -44 -7 -90 -1 -47 -5 -88 -8 -92 -4 -3 -14 11 -22 31 -18 43
-25 41 -50 -14 -10 -22 -22 -40 -27 -40 -4 0 -8 59 -8 131 0 122 1 132 22 148
12 11 19 24 16 33 -8 18 -45 27 -160 35 l-88 6 0 -182 0 -181 -24 0 c-40 0
-56 -11 -56 -36 0 -25 4 -28 53 -38 l27 -6 0 -193 c0 -105 -3 -209 -6 -229 -6
-37 -8 -38 -50 -38 -23 0 -45 -3 -47 -7 -7 -13 34 -307 45 -320 18 -22 39 -14
50 17 7 23 48 59 151 135 77 58 142 103 145 101 2 -3 -3 -42 -13 -88 -20 -101
-73 -225 -120 -283 -19 -23 -35 -48 -35 -56 0 -23 30 -59 48 -59 16 0 142 111
142 125 0 4 13 24 29 44 40 50 97 159 106 201 4 19 10 40 14 45 3 6 11 26 16
45 8 25 16 35 30 35 16 0 21 -9 27 -50 3 -27 7 -74 7 -102 l1 -53 48 0 c26 0
65 9 88 19 91 42 117 116 118 351 1 91 5 171 9 178 17 25 25 10 31 -55 4 -38
14 -124 23 -192 15 -119 15 -125 -3 -160 -68 -131 -177 -259 -266 -313 -33
-21 -36 -46 -9 -79 l19 -23 63 33 c70 36 103 59 196 138 34 29 67 53 72 53 9
0 61 -100 76 -145 3 -11 26 -37 51 -57 36 -30 54 -38 85 -38 51 0 72 11 98 54
25 39 27 85 6 152 -20 66 -19 93 6 159 20 55 20 57 2 70 -29 23 -48 17 -66
-20 -9 -19 -21 -35 -27 -35 -12 0 -50 83 -50 110 0 10 14 47 32 81 17 35 46
100 63 144 24 58 40 84 59 93 15 8 26 22 26 33 0 22 -165 199 -186 199 -7 0
-15 -18 -19 -42 -4 -23 -13 -58 -20 -78 -20 -55 -27 -18 -29 143 l-1 142 123
3 c85 2 122 6 122 14 0 7 -14 27 -31 44 l-32 33 22 27 c44 56 18 119 -59 142
-87 25 -296 62 -354 62 l-26 0 0 -125z m278 -14 c21 -36 21 -41 7 -75 -10 -24
-22 -36 -35 -36 -18 0 -20 7 -20 75 0 87 14 98 48 36z m-281 -189 c7 -5 14
-57 19 -146 8 -159 15 -154 -90 -72 -33 25 -64 46 -71 46 -6 0 -19 -13 -28
-30 -18 -30 -56 -48 -76 -35 -12 7 -16 227 -4 238 9 10 235 8 250 -1z m-475
-194 c7 -20 -9 -404 -16 -417 -4 -6 -27 -11 -52 -11 l-44 0 0 220 0 220 54 0
c34 0 55 -5 58 -12z m270 -118 c6 0 8 -52 6 -141 -3 -134 -4 -142 -27 -160
-13 -10 -32 -19 -43 -19 -19 0 -20 4 -14 53 4 28 9 97 12 152 7 102 16 130 41
120 8 -3 19 -5 25 -5z"/>
<path d="M10265 4285 c-97 -41 -206 -59 -356 -59 l-137 -1 -42 34 c-38 30 -44
32 -66 21 -13 -8 -24 -20 -24 -29 0 -22 84 -175 121 -222 17 -22 41 -42 53
-45 12 -3 72 2 132 10 60 8 192 22 294 31 102 9 203 21 225 27 102 26 112 101
23 184 -40 38 -109 74 -140 74 -13 0 -50 -12 -83 -25z"/>
<path d="M6884 4185 c-23 -14 -70 -31 -105 -39 -123 -28 -745 -81 -869 -74
-71 4 -74 5 -111 47 l-38 43 -31 -22 c-16 -12 -30 -27 -30 -34 0 -26 111 -247
141 -281 37 -42 55 -43 196 -16 231 46 740 108 755 93 12 -12 -23 -106 -65
-177 -133 -225 -455 -514 -808 -726 -24 -15 -89 -55 -144 -89 -55 -35 -119
-71 -142 -81 -57 -25 -57 -44 1 -36 43 6 323 95 361 114 11 6 61 30 110 53 50
24 116 59 148 79 270 169 400 272 566 447 105 111 147 164 246 309 38 55 83
118 102 139 39 46 41 64 12 100 -20 25 -141 121 -201 159 -36 22 -45 22 -94
-8z"/>
<path d="M10551 3802 c-24 -14 -72 -31 -106 -38 -65 -14 -395 -45 -679 -64
-233 -16 -288 -6 -342 65 -14 19 -29 35 -33 35 -3 0 -19 -10 -34 -23 l-29 -22
61 -125 c33 -69 74 -144 90 -168 37 -50 46 -51 212 -21 239 43 750 101 765 87
7 -7 -8 -60 -34 -123 -42 -102 -165 -271 -253 -349 -24 -21 -71 -63 -104 -93
-33 -31 -112 -94 -175 -142 -63 -47 -117 -88 -120 -91 -3 -3 -30 -21 -60 -39
-30 -19 -87 -56 -127 -83 -39 -26 -74 -48 -77 -48 -3 0 -36 -19 -73 -43 -142
-91 -790 -427 -823 -427 -6 0 -31 -11 -58 -24 -74 -38 -148 -71 -267 -119
-203 -83 -255 -106 -277 -123 -20 -14 -21 -16 -3 -10 11 4 61 16 110 26 100
22 192 46 340 91 55 17 123 38 150 46 28 9 64 21 80 28 17 7 53 19 80 28 75
23 192 65 234 83 20 9 51 22 69 30 18 8 38 14 44 14 6 0 66 23 132 51 168 71
166 70 313 138 72 34 135 61 140 61 4 0 28 14 53 30 25 17 60 37 78 45 18 8
39 20 46 27 8 7 59 42 115 77 56 35 101 67 101 71 0 4 19 21 43 38 23 17 65
52 92 77 112 105 185 176 185 181 0 3 30 40 68 82 99 113 192 234 273 358 40
60 87 127 105 150 53 64 46 87 -48 161 -102 80 -169 123 -192 122 -11 -1 -41
-12 -65 -27z"/>
<path d="M717 3523 c-16 -15 -5 -51 24 -79 17 -16 54 -66 81 -111 28 -46 57
-83 65 -83 30 0 92 41 113 75 52 84 -13 158 -169 191 -73 15 -104 17 -114 7z"/>
<path d="M429 3338 c-3 -303 -2 -309 35 -345 51 -48 107 -55 399 -51 272 3
283 5 335 61 19 20 24 37 25 87 2 47 -2 64 -13 70 -8 5 -33 17 -55 28 -39 19
-40 20 -41 73 -1 44 -4 55 -19 58 -23 4 -45 -24 -45 -56 0 -13 -11 -35 -25
-48 -23 -24 -28 -25 -179 -25 -85 0 -161 3 -170 6 -13 5 -16 24 -16 101 0 86
2 96 23 113 19 17 20 20 7 33 -12 11 -209 48 -252 47 -5 0 -9 -69 -9 -152z"/>
<path d="M8562 3467 c-28 -13 -26 -33 14 -135 42 -107 44 -108 166 -93 57 8
138 16 180 18 l77 5 -5 -53 c-10 -105 -40 -279 -49 -288 -4 -3 -114 -6 -246
-6 l-238 0 -29 34 c-28 34 -28 34 -55 16 -35 -23 -35 -51 3 -115 17 -28 30
-54 30 -59 0 -4 16 -26 36 -49 40 -47 48 -49 155 -27 41 8 143 21 228 30 170
17 355 9 501 -23 41 -9 97 -16 125 -16 48 -1 50 0 61 34 17 50 8 83 -35 127
-90 95 -137 111 -211 73 -22 -11 -59 -20 -85 -20 -44 0 -45 1 -39 28 4 15 10
34 14 42 4 8 11 36 14 62 10 67 51 167 83 200 23 24 25 32 17 55 -9 28 -177
163 -202 163 -8 0 -27 -9 -43 -21 -35 -25 -121 -39 -241 -39 -97 0 -163 19
-173 51 -7 21 -19 23 -53 6z"/>
<path d="M1149 3434 c-11 -13 -10 -19 1 -37 59 -92 102 -174 130 -244 30 -76
35 -83 60 -83 32 0 85 34 114 73 25 34 27 117 4 159 -27 49 -99 93 -211 128
-75 24 -81 24 -98 4z"/>
<path d="M285 3432 c-6 -4 -19 -27 -30 -52 -11 -24 -51 -82 -88 -128 -65 -80
-68 -85 -57 -112 7 -16 29 -47 49 -69 34 -36 43 -41 82 -41 53 1 69 12 92 66
20 45 26 172 13 282 -7 55 -11 62 -29 62 -12 0 -27 -4 -32 -8z"/>
<path d="M1992 3298 c-7 -7 -12 -22 -12 -34 0 -13 -4 -26 -10 -29 -5 -3 -10
-14 -10 -23 0 -25 -64 -122 -103 -155 -17 -15 -49 -39 -70 -53 -34 -22 -38
-29 -32 -52 3 -15 11 -31 16 -37 14 -14 87 9 188 58 68 33 103 58 167 123 45
44 96 86 113 94 35 14 41 44 14 59 -10 5 -63 19 -118 30 -55 12 -107 24 -115
26 -9 3 -21 0 -28 -7z"/>
<path d="M4560 2466 l0 -76 -211 0 -210 0 3 -32 3 -33 83 -3 c73 -2 82 -5 78
-20 -3 -9 -11 -39 -17 -67 -7 -27 -18 -61 -26 -75 -7 -14 -13 -30 -13 -36 0
-6 -13 -38 -30 -72 -16 -34 -30 -64 -30 -66 0 -2 -16 -32 -35 -66 -37 -65 -39
-100 -6 -100 9 0 30 14 46 30 58 60 55 73 59 -325 1 -44 5 -86 9 -92 10 -16
97 -17 130 -2 23 10 25 17 31 123 4 61 11 216 15 344 7 181 12 237 23 250 8 9
18 25 21 35 4 10 21 23 37 29 45 15 37 47 -17 73 -24 11 -43 23 -43 27 0 5 32
8 71 8 l71 0 -6 -27 c-3 -16 -8 -47 -11 -71 -4 -24 -13 -56 -21 -70 -8 -15
-14 -33 -14 -40 0 -8 -6 -26 -14 -40 -7 -15 -23 -47 -35 -72 -12 -25 -27 -53
-34 -62 -9 -14 -8 -21 5 -34 15 -16 20 -16 49 -2 l32 16 48 -98 c27 -53 62
-112 79 -130 16 -18 30 -38 30 -45 0 -26 -146 -147 -202 -168 -25 -9 -24 -47
1 -47 29 0 170 60 229 97 29 18 57 33 62 33 6 0 37 -18 69 -40 101 -69 221
-112 221 -79 0 6 7 35 15 64 13 44 21 55 45 64 56 19 35 39 -64 60 -63 14
-146 46 -146 57 0 3 20 37 45 74 49 74 108 196 120 248 4 22 18 40 41 55 18
12 34 29 34 37 0 19 -154 140 -177 140 -10 0 -26 -11 -38 -25 -19 -25 -25 -26
-100 -23 l-80 3 32 20 c56 34 40 62 -52 91 -35 11 -12 13 180 13 121 1 230 4
243 7 30 9 29 47 -2 68 -14 9 -50 36 -81 61 -58 48 -95 54 -95 15 0 -10 -5
-22 -11 -25 -5 -4 -14 -18 -19 -31 -9 -23 -13 -24 -110 -24 l-100 0 0 33 c0
21 7 36 20 45 25 15 26 38 1 51 -10 6 -66 13 -125 17 l-106 7 0 -77z m366
-396 c-4 -28 -11 -61 -16 -73 -5 -12 -11 -35 -15 -50 -6 -30 -25 -28 -25 2 0
34 -28 73 -72 102 -24 16 -48 29 -55 29 -15 0 -26 17 -18 30 3 6 51 10 107 10
l101 0 -7 -50z m-232 -82 c20 -48 36 -102 36 -121 0 -24 46 -22 94 4 21 11 41
17 44 14 4 -3 -7 -32 -23 -63 -43 -81 -57 -80 -147 11 -40 40 -79 86 -87 100
-14 26 -13 29 14 57 37 38 52 38 69 -2z"/>
<path d="M6690 2430 l0 -110 -32 0 c-18 1 -69 9 -113 20 -44 10 -83 16 -87 14
-11 -7 -10 -886 1 -903 12 -19 103 -20 125 -2 8 7 16 22 18 34 l3 22 325 0
325 0 3 -27 c3 -28 4 -28 73 -28 63 0 70 2 79 23 5 12 13 181 18 376 l10 353
28 24 29 23 -35 33 c-47 45 -129 98 -151 98 -10 0 -26 -13 -36 -30 -15 -26
-23 -30 -60 -30 l-43 0 0 60 c0 52 3 61 25 76 29 19 33 49 7 63 -10 5 -69 13
-130 17 -103 6 -112 5 -112 -11 0 -13 -5 -15 -17 -10 -26 12 -119 23 -190 24
l-63 1 0 -110z m274 17 c0 -15 -1 -49 -2 -77 l-2 -50 -35 0 -35 0 0 59 c0 53
3 61 28 80 34 25 47 22 46 -12z m-271 -254 c2 -32 4 -96 3 -143 l-1 -85 -37
-3 -38 -3 0 130 c0 71 3 136 6 145 4 9 18 16 34 16 27 0 28 -2 33 -57z m271
26 c3 -17 6 -83 6 -145 l0 -114 -45 0 -45 0 0 84 c0 45 3 111 6 145 7 61 7 61
39 61 28 0 33 -4 39 -31z m286 -114 l0 -145 -46 0 -47 0 6 135 c4 75 9 140 12
145 4 6 22 10 41 10 l34 0 0 -145z m-555 -380 l0 -170 -43 -3 c-32 -2 -44 1
-48 13 -4 9 -1 88 6 176 l13 160 36 -3 36 -3 0 -170z m273 -2 l2 -173 -44 0
c-25 0 -48 5 -52 11 -3 6 -3 85 1 175 l7 165 42 -3 41 -3 3 -172z m287 135 c3
-24 5 -101 3 -173 l-3 -130 -45 -3 c-72 -4 -71 -6 -59 168 6 85 13 161 15 168
2 7 20 12 43 12 39 0 40 -1 46 -42z"/>
<path d="M1730 2515 c0 -6 -9 -21 -20 -33 -20 -21 -29 -22 -190 -22 -134 0
-187 4 -255 20 -47 11 -97 20 -110 20 l-25 0 0 -252 c0 -139 -5 -324 -10 -410
-11 -176 -28 -239 -87 -322 -36 -50 -34 -74 4 -62 29 9 127 110 176 180 46 66
62 101 72 156 3 19 11 47 17 63 l10 27 188 0 188 0 4 -107 c3 -60 1 -113 -5
-120 -5 -7 -41 -13 -90 -15 -74 -3 -82 -5 -82 -23 0 -16 8 -21 37 -23 47 -4
55 -14 65 -87 9 -70 18 -74 109 -55 67 14 119 56 134 108 9 32 22 290 32 653
3 103 4 107 33 131 28 24 29 27 15 52 -7 15 -33 36 -56 48 -24 11 -56 33 -73
48 -32 30 -81 45 -81 25z m-42 -221 l3 -92 -100 -7 c-55 -4 -137 -4 -181 0
l-80 7 0 94 0 94 178 -2 177 -3 3 -91z m2 -264 l0 -100 -186 0 -187 0 7 53 c3
28 6 73 6 100 l0 47 180 0 180 0 0 -100z"/>
<path d="M2902 2518 c-5 -7 -12 -23 -16 -34 -4 -12 -16 -30 -27 -40 -20 -18
-44 -19 -418 -19 l-396 0 -3 -32 -3 -33 200 0 201 0 0 -27 c1 -373 15 -890 24
-896 15 -11 124 -1 140 12 10 9 15 79 21 301 5 206 10 290 19 290 20 0 145
-144 175 -202 19 -36 53 -37 102 -2 56 39 72 68 66 122 -5 49 -33 81 -90 102
-17 7 -41 16 -52 20 -33 13 -172 50 -188 50 -21 0 -28 49 -21 144 l7 82 223
-2 224 -2 0 26 c-1 19 -12 35 -38 55 -20 15 -57 43 -82 62 -50 39 -54 40 -68
23z"/>
<path d="M5415 2510 c-4 -6 -6 -34 -5 -63 4 -101 8 -96 -62 -99 -52 -2 -63 -6
-66 -22 -5 -24 14 -36 61 -36 38 0 39 0 32 -32 -11 -59 -64 -181 -97 -227 -10
-13 -18 -34 -18 -47 0 -35 33 -31 91 11 27 19 53 35 59 35 5 0 11 -47 12 -107
l3 -108 57 -3 c80 -4 97 15 100 106 0 37 2 93 3 124 0 32 4 60 7 63 3 4 15
-18 26 -47 22 -58 38 -64 78 -27 38 36 44 25 44 -80 0 -75 4 -101 15 -111 8
-7 15 -21 15 -30 0 -10 11 -32 25 -49 14 -16 33 -51 42 -77 16 -46 16 -46 55
-41 66 9 102 58 82 112 -8 20 -68 51 -117 60 -44 9 -49 25 -7 25 17 0 39 9 50
20 17 17 33 20 109 20 78 0 89 -2 94 -18 2 -11 17 -21 33 -25 37 -7 122 7 137
22 8 8 13 85 17 245 5 224 7 235 27 253 43 36 34 53 -57 109 -47 29 -93 53
-102 53 -9 1 -25 -10 -36 -24 -18 -23 -27 -25 -98 -25 -44 0 -114 7 -157 15
-128 24 -127 24 -127 -39 0 -30 -5 -58 -11 -62 -6 -3 -24 8 -41 26 l-29 33
-29 -34 -29 -34 -1 36 c0 24 5 39 15 43 24 9 18 45 -7 50 -59 12 -187 16 -193
6z m685 -165 l0 -55 -88 0 c-49 0 -91 2 -93 4 -2 2 -2 27 -1 55 l4 51 89 0 89
0 0 -55z m-364 -122 c2 -35 1 -63 -1 -63 -1 0 -30 14 -63 30 -34 17 -66 30
-71 30 -6 0 -11 16 -11 35 l0 36 72 -3 72 -3 2 -62z m366 -48 l-4 -56 -91 3
-92 3 -3 29 c-2 15 -1 39 2 52 6 23 10 24 99 24 l92 0 -3 -55z m-24 -121 c19
-6 22 -13 22 -60 l0 -54 -95 0 -95 0 0 54 c0 34 5 56 13 59 17 8 128 8 155 1z"/>
<path d="M3435 2264 c-113 -45 -161 -75 -207 -131 -76 -91 -106 -206 -88 -333
12 -86 60 -173 122 -223 53 -43 93 -33 168 42 134 133 220 429 158 544 -15 29
2 39 51 28 57 -13 126 -67 152 -121 12 -25 26 -53 31 -64 5 -10 8 -66 7 -125
-5 -209 -68 -302 -251 -372 -61 -23 -63 -25 -49 -48 8 -12 19 -12 72 -2 146
29 250 92 323 195 54 75 77 153 75 251 -4 155 -82 275 -219 338 -59 28 -77 31
-185 34 -93 2 -129 0 -160 -13z m65 -109 c48 -89 -93 -419 -193 -451 -26 -8
-64 30 -70 69 -5 34 9 158 22 192 36 96 86 156 166 198 42 23 60 21 75 -8z"/>
<path d="M5549 1658 c5 -215 2 -212 261 -216 218 -4 262 5 298 58 27 41 25 70
-6 86 -42 21 -72 53 -72 79 0 16 -6 25 -15 25 -9 0 -15 -9 -15 -24 0 -13 -9
-35 -21 -50 -20 -25 -24 -26 -128 -26 -70 0 -111 4 -119 12 -20 20 -15 102 8
123 24 22 26 51 4 59 -9 3 -57 6 -107 6 l-92 0 4 -132z"/>
<path d="M6094 1776 c-3 -8 10 -46 30 -86 19 -40 40 -94 47 -121 13 -48 14
-49 52 -49 80 0 125 91 77 153 -24 31 -97 81 -147 102 -44 19 -52 19 -59 1z"/>
<path d="M5415 1734 c-8 -20 -42 -62 -75 -95 -65 -63 -66 -69 -23 -126 20 -27
31 -33 61 -33 47 0 58 7 77 53 11 27 15 67 14 138 -1 89 -3 99 -20 99 -12 0
-24 -13 -34 -36z"/>
</g>
</svg>
