<svg class="img-fluid" id="outputsvg" xmlns="http://www.w3.org/2000/svg" style="transform: matrix(0.591716, 0, 0, 0.591716, 80.0015, 106.245); transform-origin: 50% 50%; cursor: move; max-height: none; transition: transform 200ms ease-in-out 0s;" width="1283" height="518" viewBox="0 0 12830 5180"><g id="l28V2Kb4Kh2Nqv53pZDvKrw" fill="rgb(223,183,100)" style="transform: none;"><g><path id="p9pjPSB87" d="M10525 5169 c-213 -15 -441 -91 -608 -202 -360 -240 -502 -642 -347 -983 92 -204 299 -403 545 -524 225 -110 432 -151 635 -125 55 7 55 7 258 -502 111 -281 202 -513 202 -516 0 -4 -31 -7 -70 -7 -91 0 -159 26 -278 107 -95 64 -95 64 -156 37 -34 -14 -65 -30 -69 -34 -12 -10 49 -163 131 -330 51 -105 77 -146 117 -185 53 -52 159 -114 233 -136 23 -7 42 -17 42 -23 0 -11 -116 -396 -201 -670 -22 -71 -65 -175 -94 -232 -56 -109 -151 -253 -171 -261 -7 -2 -36 8 -65 22 -128 65 -378 143 -515 161 -52 6 -52 6 -84 -91 -18 -53 -30 -97 -29 -99 2 -1 42 -13 89 -25 241 -65 578 -239 879 -455 124 -89 124 -89 163 -45 68 77 193 274 254 398 33 66 63 121 67 121 36 1 365 -262 548 -438 76 -73 76 -73 127 -5 93 126 159 173 239 173 90 0 164 -52 214 -153 12 -23 23 -43 24 -45 2 -2 42 7 89 20 87 22 87 22 80 68 -16 107 -74 227 -168 348 -89 112 -204 183 -387 236 -84 24 -84 24 -261 447 -98 233 -178 434 -178 445 0 12 3 36 6 53 7 32 7 32 178 29 169 -3 172 -3 238 -35 37 -17 88 -46 113 -63 46 -32 46 -32 101 6 30 21 60 44 66 51 26 32 -123 341 -211 435 -65 71 -166 124 -259 136 -34 5 -65 11 -68 15 -11 10 227 802 295 982 45 120 117 283 137 309 13 19 15 19 76 -7 73 -31 266 -97 284 -97 7 0 26 35 42 78 50 132 57 114 -65 163 -271 109 -497 243 -636 377 -49 47 -49 47 -84 7 -106 -119 -241 -332 -293 -460 -14 -36 -27 -54 -36 -51 -7 2 -90 68 -186 145 -141 114 -186 157 -240 228 -36 48 -76 105 -88 126 -12 20 -24 37 -27 37 -3 0 -36 -29 -73 -64 -104 -98 -237 -168 -395 -208 -116 -29 -390 -37 -506 -14 -170 34 -288 113 -344 232 -24 49 -29 76 -33 160 -5 121 7 185 54 280 103 210 361 375 668 429 115 20 329 20 436 -1 45 -8 84 -14 85 -12 2 2 6 48 10 104 7 101 7 101 -62 112 -38 6 -110 14 -159 17 -49 3 -107 7 -129 9 -22 1 -89 -1 -150 -5z m315 -90 c46 -5 86 -12 87 -13 2 -2 1 -10 -2 -18 -5 -11 -19 -13 -73 -7 -201 23 -445 0 -620 -57 -209 -69 -420 -239 -498 -402 -53 -113 -66 -184 -62 -342 3 -133 4 -136 41 -215 49 -103 74 -134 140 -179 137 -90 386 -131 649 -107 73 6 147 14 163 17 19 3 13 -1 -15 -11 -80 -27 -266 -47 -368 -39 -93 6 -93 6 -90 -37 3 -42 4 -43 63 -66 100 -39 236 -56 413 -50 209 6 301 33 470 139 79 50 81 73 20 164 -42 62 -44 63 -88 64 -45 1 -45 1 -15 25 17 14 33 25 37 25 3 0 35 -35 70 -77 100 -121 179 -194 343 -318 136 -103 157 -115 193 -115 38 0 41 2 53 38 29 90 146 303 236 430 49 69 33 75 221 -76 51 -41 288 -162 415 -212 32 -12 56 -25 53 -27 -7 -7 -97 24 -200 68 -50 22 -106 39 -126 39 -37 0 -37 0 -85 -102 -26 -57 -54 -121 -61 -143 -7 -22 -20 -58 -29 -80 -52 -120 -177 -498 -230 -690 -9 -33 -20 -69 -25 -80 -14 -37 -40 -132 -40 -149 0 -9 -4 -24 -9 -34 -18 -36 -42 -124 -48 -173 -7 -60 1 -68 67 -69 25 -1 63 -5 85 -10 40 -9 39 -9 -9 -5 -27 3 -103 5 -169 5 -119 0 -119 0 -112 23 3 12 13 49 21 82 9 33 24 94 35 135 26 104 57 227 86 345 14 55 29 109 34 120 5 11 13 42 19 70 6 27 15 54 19 60 5 5 12 27 15 49 4 21 11 46 15 55 5 9 21 57 36 106 59 194 96 276 197 437 35 57 48 88 48 116 0 34 -5 41 -65 85 -51 37 -74 47 -104 47 -38 0 -40 -2 -102 -97 -75 -115 -159 -281 -189 -373 -11 -36 -27 -78 -35 -95 -7 -16 -23 -70 -35 -120 -12 -49 -28 -112 -36 -140 -8 -27 -22 -88 -33 -135 -10 -48 -23 -95 -29 -107 -6 -11 -16 -45 -21 -74 -13 -71 -72 -313 -101 -414 -12 -44 -28 -100 -35 -125 -12 -45 -13 -45 -66 -53 -69 -11 -230 -2 -289 16 -41 12 -31 13 113 9 157 -5 157 -5 157 40 0 24 -9 61 -20 83 -11 22 -20 45 -20 51 0 7 -13 39 -30 72 -16 34 -30 67 -30 74 0 8 -4 18 -8 24 -5 5 -15 25 -22 44 -7 19 -20 53 -30 75 -26 62 -62 148 -70 170 -32 85 -131 318 -163 385 -11 25 -33 81 -48 125 -26 80 -26 80 -165 77 -265 -7 -503 63 -716 210 -218 150 -348 322 -399 528 -28 115 -19 185 44 350 46 122 137 233 277 339 138 105 309 182 465 210 33 6 69 12 80 15 43 8 275 5 355 -5z m19 -2781 c70 -45 73 -48 43 -48 -30 0 -32 -2 -32 -36 0 -35 21 -71 83 -141 73 -81 159 -113 310 -113 50 0 87 -4 87 -10 0 -21 -116 -432 -200 -705 -88 -291 -206 -573 -250 -600 -6 -4 3 16 19 44 64 108 125 273 221 601 15 52 43 147 62 210 69 226 79 269 76 306 -3 37 -4 37 -63 50 -177 36 -279 129 -402 367 -18 34 -33 70 -33 79 0 9 -4 20 -10 23 -5 3 -10 13 -10 21 0 17 -4 19 99 -48z m1317 -210 c29 -33 29 -33 -3 -4 -31 28 -38 36 -30 36 2 0 16 -15 33 -32z m152 -247 c18 -40 31 -75 29 -78 -3 -2 -26 10 -53 27 -27 16 -64 35 -84 40 -39 11 -327 13 -442 4 -75 -7 -75 -7 -92 -65 -28 -101 -23 -133 50 -307 37 -86 76 -182 89 -212 19 -48 185 -441 221 -526 12 -30 16 -31 81 -36 157 -11 374 -161 482 -332 41 -65 39 -75 -6 -36 -64 57 -131 80 -231 80 -109 0 -167 -25 -245 -106 -28 -30 -54 -54 -57 -54 -3 0 -28 21 -55 46 -73 66 -327 270 -420 336 -157 112 -160 123 -6 20 54 -36 104 -62 119 -62 14 0 67 20 117 44 50 24 107 47 128 51 35 7 37 9 37 47 0 22 -6 54 -14 71 -27 60 -153 362 -217 519 -64 158 -64 158 -106 158 -38 0 -43 -3 -49 -27 -40 -167 -121 -457 -159 -562 -20 -57 -19 -120 2 -143 15 -17 14 -18 -21 -18 -33 0 -37 -3 -53 -42 -48 -125 -218 -427 -280 -499 -13 -15 -28 -7 -165 83 -349 231 -516 315 -735 369 -57 14 -74 35 -20 24 100 -20 307 -95 474 -171 32 -15 133 -20 133 -6 0 4 14 23 32 42 30 35 30 35 4 -2 -14 -20 -26 -50 -26 -67 0 -27 9 -37 82 -86 67 -44 91 -55 124 -55 38 0 43 4 87 63 47 62 172 302 202 387 41 115 76 225 109 345 20 72 45 162 56 200 10 39 46 178 80 310 99 391 71 345 213 348 190 3 286 -1 364 -19 40 -8 85 -14 100 -12 24 3 29 8 31 37 4 35 4 35 31 -10 15 -24 42 -77 59 -118z m-560 -838 c51 -126 92 -234 92 -240 0 -7 -8 -13 -18 -13 -11 0 -46 -14 -80 -31 -61 -30 -61 -30 -137 27 -41 31 -75 61 -75 67 0 5 20 75 44 156 24 80 49 172 56 204 7 31 16 57 19 57 4 0 48 -102 99 -227z"></path><path id="pSiFUN9f6" d="M11189 3582 c-59 -32 -141 -69 -183 -82 -76 -25 -76 -25 -76 -68 0 -44 52 -175 166 -419 13 -28 24 -55 24 -58 0 -3 11 -30 23 -58 13 -29 27 -65 31 -82 4 -16 11 -32 15 -35 4 -3 26 -54 50 -115 41 -106 52 -132 100 -238 21 -48 22 -48 63 -45 42 3 42 3 55 78 7 41 17 86 23 100 6 14 15 48 20 75 19 107 41 201 50 216 5 9 12 34 15 55 8 42 32 136 66 249 11 39 25 88 30 110 6 22 14 44 20 50 5 5 9 28 9 51 0 43 0 43 -112 118 -62 41 -133 93 -158 116 -63 57 -95 55 -231 -18z m221 -111 c39 -32 95 -72 125 -87 30 -16 55 -32 55 -35 0 -3 -11 -33 -25 -68 -13 -34 -59 -200 -102 -367 -42 -167 -80 -304 -83 -304 -8 0 -330 750 -330 768 0 6 6 12 14 12 21 0 231 107 246 125 7 8 16 15 21 15 5 0 41 -26 79 -59z"></path><path id="pr6MdgXJN" d="M11980 657 c-64 -13 -139 -45 -172 -75 -11 -9 -18 -29 -18 -52 0 -33 7 -41 69 -93 59 -48 76 -57 110 -57 27 0 48 7 68 24 72 60 109 71 243 71 125 0 125 0 128 36 3 35 0 38 -65 83 -37 25 -83 50 -101 56 -59 16 -194 20 -262 7z"></path><path id="pEwUEg2Ab" d="M4449 3828 c-6 -13 -13 -24 -14 -26 -2 -2 -18 4 -35 13 -46 24 -135 23 -168 -2 -35 -26 -39 -49 -41 -235 0 -87 -5 -158 -9 -158 -4 0 -13 5 -20 12 -9 9 -20 4 -50 -25 -21 -20 -40 -37 -44 -37 -3 0 -8 17 -12 38 -18 118 -136 262 -266 326 -82 40 -204 76 -262 76 -36 0 -36 -1 -64 -72 -15 -40 -28 -75 -30 -77 -2 -2 -19 4 -39 13 -56 27 -129 23 -171 -9 -105 -80 -161 -243 -143 -415 20 -189 163 -342 368 -395 84 -22 234 -21 309 0 153 45 263 169 294 332 14 78 16 83 26 83 13 0 162 -315 162 -341 0 -5 -30 -9 -68 -9 -67 0 -67 0 -85 -84 -9 -46 -17 -89 -17 -95 0 -8 65 -11 221 -11 221 0 221 0 214 -81 -7 -82 -7 -82 122 -75 151 8 199 18 225 44 21 21 25 44 15 85 -7 26 -6 27 31 27 37 0 39 -2 81 -76 39 -67 45 -74 60 -61 9 7 62 50 118 95 97 78 104 82 152 82 51 0 51 0 51 -85 0 -61 3 -85 13 -85 6 0 74 7 150 17 115 14 140 14 147 3 7 -11 43 -9 205 10 196 24 196 24 233 -18 37 -43 37 -43 166 44 114 76 142 90 230 115 56 16 107 29 114 29 9 0 12 -29 12 -114 0 -115 0 -115 223 -111 222 4 361 16 396 35 22 11 31 31 31 70 0 25 12 35 120 99 66 40 125 81 131 93 19 35 14 91 -10 106 -21 14 -21 20 -21 351 0 185 -5 354 -10 375 -12 55 -45 84 -107 96 -72 13 -141 -1 -170 -34 -22 -26 -22 -26 -276 -26 -255 0 -255 0 -287 30 -37 34 -82 45 -173 42 -58 -3 -97 -46 -97 -107 0 -47 0 -47 -36 -20 -42 32 -111 55 -165 55 -21 0 -41 5 -45 11 -27 44 -212 72 -386 59 -113 -9 -164 -22 -212 -55 -36 -24 -36 -24 -71 -4 -62 37 -139 25 -191 -30 -22 -24 -37 -31 -66 -31 -38 0 -38 0 -38 44 0 64 -31 99 -89 98 -48 -1 -137 -40 -220 -96 -29 -20 -56 -36 -61 -36 -4 0 -38 18 -76 40 -69 40 -228 109 -251 110 -7 0 -18 -10 -24 -22z m-66 -112 c15 -16 27 -233 27 -521 0 -160 0 -160 30 -207 17 -27 36 -48 43 -49 6 0 -5 -7 -25 -16 -35 -14 -38 -19 -38 -54 0 -39 0 -39 -40 -39 -40 0 -40 0 -40 48 0 56 -53 212 -109 321 -39 76 -39 76 5 72 44 -3 44 -3 44 228 0 231 0 231 44 231 25 0 51 -6 59 -14z m694 -52 c22 -78 22 -76 -32 -89 -108 -27 -130 -39 -133 -75 -2 -22 4 -43 17 -61 55 -74 129 -226 147 -302 3 -15 15 -34 27 -42 17 -12 18 -17 7 -30 -7 -8 -18 -15 -24 -15 -6 -1 -27 -14 -46 -31 -30 -26 -36 -27 -46 -14 -6 8 -22 15 -35 16 -13 0 -18 3 -11 6 15 6 16 92 1 148 -6 22 -13 55 -16 73 -3 19 -12 36 -19 39 -8 3 -14 17 -14 32 -1 14 -14 49 -29 76 -27 47 -32 50 -73 53 -39 3 -50 -2 -93 -37 -27 -22 -51 -39 -53 -37 -5 6 43 79 67 100 15 14 21 31 21 62 0 38 -5 46 -52 89 -52 46 -52 46 -13 24 22 -12 49 -29 60 -36 36 -24 102 -16 152 18 57 39 155 90 167 86 5 -2 15 -25 23 -53z m912 45 c46 -10 101 -46 101 -67 0 -5 -17 -19 -37 -33 -36 -23 -39 -24 -55 -7 -15 15 -37 18 -137 18 -66 0 -131 -4 -145 -10 -25 -9 -26 -13 -26 -80 0 -39 5 -80 10 -91 10 -18 7 -19 -61 -19 -72 0 -72 0 -67 108 5 113 14 144 51 163 47 26 279 37 366 18z m567 -3 c15 -12 19 -28 21 -83 20 -762 20 -731 -12 -737 -16 -3 -42 -9 -57 -12 -28 -6 -28 -6 -28 413 0 231 3 423 7 426 11 12 48 8 69 -7z m817 -10 c17 -18 27 -205 27 -525 0 -186 2 -226 15 -235 12 -9 5 -18 -41 -49 -55 -37 -55 -37 -72 -17 -15 19 -17 61 -17 418 0 218 4 403 8 410 11 16 62 15 80 -2z m-1948 -62 c10 -22 15 -53 13 -87 -3 -52 -3 -52 -61 9 -58 61 -58 61 -28 93 34 37 53 33 76 -15z m-1659 -10 c70 -47 153 -141 176 -200 83 -210 -49 -435 -282 -483 -38 -8 -78 -8 -128 -2 -81 10 -106 21 -48 21 46 0 56 22 56 118 -1 93 -14 141 -69 257 -59 124 -109 175 -171 175 -31 0 -47 -7 -67 -26 -26 -26 -26 -26 -20 -153 5 -113 9 -135 35 -192 19 -43 45 -79 78 -108 41 -37 43 -41 15 -25 -55 31 -127 119 -152 187 -17 47 -22 81 -21 141 2 74 4 84 43 148 38 62 89 118 108 118 19 0 90 -61 127 -111 79 -103 140 -302 122 -396 -5 -26 -12 -70 -15 -97 -5 -49 -5 -49 67 -43 103 9 158 45 220 147 11 19 15 59 15 175 0 131 -3 158 -23 213 -29 81 -47 108 -96 143 -56 41 -35 36 30 -7z m3359 -166 c3 -106 7 -273 8 -371 2 -146 5 -179 17 -187 11 -7 12 -10 2 -10 -11 0 -13 -22 -10 -105 3 -105 3 -105 -47 -105 -27 0 -60 -3 -72 -6 -23 -6 -23 -6 -23 285 0 208 -3 291 -11 291 -8 0 -8 4 1 15 8 9 11 45 10 102 -1 49 -2 132 -1 186 1 97 1 97 60 97 59 0 59 0 66 -192z m-866 154 c47 -39 38 -67 -36 -119 -72 -50 -88 -59 -81 -47 3 5 13 27 23 49 9 22 23 55 31 73 8 18 14 42 14 52 0 27 10 25 49 -8z m584 -109 c4 -75 7 -238 7 -363 0 -125 3 -229 6 -233 4 -3 6 -51 5 -107 -2 -76 1 -100 11 -100 36 -1 -24 -18 -79 -23 -63 -5 -63 -5 -63 236 0 133 -3 351 -7 485 -6 242 -6 242 54 242 60 0 60 0 66 -137z m-3270 97 c70 -26 125 -75 162 -141 28 -51 30 -60 30 -169 0 -121 -9 -154 -58 -207 -30 -34 -37 -29 -37 30 -1 79 -24 193 -57 278 -26 65 -52 111 -120 207 -15 21 -14 22 5 22 12 0 45 -9 75 -20z m2363 -129 c17 -23 7 -37 -39 -55 -63 -24 -68 -21 -47 22 11 20 22 45 24 55 5 15 9 16 28 6 13 -7 28 -19 34 -28z m-404 -148 c16 -14 18 -33 18 -150 0 -133 0 -133 39 -133 42 0 55 10 65 54 6 26 8 27 25 12 10 -9 34 -16 54 -16 37 0 37 0 37 110 0 110 0 110 43 110 24 0 48 -5 55 -12 8 -8 12 -46 12 -105 0 -68 3 -93 13 -93 9 0 9 -2 0 -8 -10 -6 -12 -50 -10 -173 2 -164 2 -164 57 -170 55 -6 55 -6 -5 -8 -33 -1 -84 -6 -112 -10 -53 -7 -53 -7 -53 56 0 63 0 63 -39 63 -22 0 -44 -6 -51 -15 -17 -20 -27 -19 -33 5 -5 18 0 20 59 20 64 0 64 0 64 100 0 100 0 100 -39 100 -21 0 -44 -6 -50 -14 -7 -8 -37 -25 -67 -37 -54 -23 -54 -23 -54 -160 0 -136 0 -136 -31 -143 -79 -15 -79 -15 -79 79 0 69 -3 85 -15 85 -8 0 -15 9 -15 20 0 44 -45 181 -72 220 -25 35 -22 47 5 22 15 -14 36 -22 60 -22 37 0 37 0 37 115 0 115 0 115 32 115 17 0 40 -7 50 -17z m708 -23 c12 -8 16 -49 18 -247 3 -187 6 -241 17 -253 13 -14 7 -20 -50 -53 -73 -42 -75 -43 -75 -22 0 9 -10 16 -27 16 -24 2 -24 2 -6 6 22 4 22 7 22 168 0 90 -4 167 -9 170 -5 3 -5 19 1 38 5 17 7 62 3 99 -4 36 -3 71 0 77 9 13 85 14 106 1z m-1434 -22 c16 -12 31 -23 33 -25 2 -1 -2 -16 -9 -33 -7 -18 -32 -42 -61 -60 -53 -32 -68 -37 -51 -17 10 12 27 68 39 130 6 33 12 33 49 5z m-236 -72 c0 -32 53 -76 90 -76 27 0 29 -3 32 -47 3 -46 4 -48 36 -51 31 -3 32 -5 32 -48 0 -24 5 -44 10 -44 27 0 5 -18 -37 -31 -45 -13 -48 -16 -51 -51 -3 -35 -1 -38 22 -38 25 0 26 -2 26 -64 0 -63 0 -63 -37 -70 -73 -12 -93 -8 -93 17 0 12 -3 46 -6 75 -7 51 -6 52 20 52 23 0 26 4 26 33 0 37 -31 180 -41 187 -3 3 -10 19 -13 37 -4 18 -20 57 -36 88 -28 55 -28 55 -4 55 19 0 24 -5 24 -24z m530 -425 c-59 -42 -67 -40 -84 17 -7 21 -5 22 66 22 73 0 73 0 18 -39z"></path><path id="pP1sAxdD0" d="M962 3778 c-21 -29 -42 -59 -46 -66 -5 -8 8 -30 33 -59 23 -25 56 -76 74 -112 32 -66 32 -66 35 -503 2 -335 6 -438 15 -438 7 0 68 14 137 30 112 27 142 30 287 30 161 0 161 0 197 -50 24 -33 41 -48 49 -43 7 4 60 42 119 85 59 43 110 78 113 78 3 0 5 -7 5 -15 0 -13 53 -15 418 -15 418 0 418 0 461 -76 39 -67 45 -74 60 -61 9 7 62 50 118 96 55 45 104 89 107 97 14 37 6 81 -20 105 -25 23 -30 24 -220 27 -194 3 -194 3 -194 58 0 47 3 54 19 54 44 0 180 52 231 87 140 99 117 253 -52 339 -73 37 -81 34 -140 -58 -53 -83 -53 -83 -58 139 -6 249 -9 259 -83 296 -48 24 -157 26 -192 3 -50 -33 -50 -33 -53 -488 -3 -428 -3 -428 -198 -428 -193 0 -194 0 -194 -22 0 -18 -3 -19 -12 -10 -10 10 -14 107 -18 385 -6 423 -7 426 -88 497 -51 46 -135 75 -244 85 -66 6 -66 6 -73 -79 -7 -86 -7 -86 -61 -86 -54 0 -54 0 -54 -95 0 -95 0 -95 90 -95 90 0 90 0 90 -50 0 -50 0 -50 -129 -50 -129 0 -129 0 -136 41 -13 78 -91 214 -164 288 -58 58 -159 131 -183 131 -4 0 -25 -24 -46 -52z m1611 -70 c15 -12 18 -48 24 -310 6 -298 6 -298 38 -298 18 0 44 9 59 21 34 27 127 143 150 187 17 34 17 34 49 9 17 -13 40 -35 50 -49 25 -33 10 -65 -46 -99 -43 -26 -60 -32 -207 -72 -85 -23 -85 -23 -84 -165 1 -142 1 -142 -63 -142 -63 0 -63 0 -65 248 -3 281 2 663 9 675 7 12 68 8 86 -5z m-795 -35 c64 -48 65 -50 76 -466 10 -335 13 -380 28 -391 14 -11 8 -18 -53 -59 -60 -40 -70 -44 -78 -30 -5 10 -28 20 -57 24 -46 6 -47 6 -11 8 37 1 37 1 35 404 -3 402 -3 402 -53 407 -27 3 -45 8 -39 12 6 4 14 35 18 68 7 61 7 61 54 54 26 -3 62 -17 80 -31z m-583 -168 c26 -41 54 -107 70 -160 24 -83 27 -108 32 -340 6 -250 6 -250 -58 -267 -35 -9 -65 -15 -65 -15 -1 1 -7 155 -13 342 -11 328 -26 488 -52 537 -26 51 43 -27 86 -97z m1820 -725 c-8 -13 -86 -63 -90 -58 -8 10 -25 48 -25 57 0 7 24 11 61 11 39 0 58 -4 54 -10z"></path><path id="pfvcZ6YVL" d="M7726 3459 c-9 -23 -16 -43 -14 -44 2 -2 86 -37 188 -78 486 -196 985 -439 1428 -696 78 -45 142 -86 142 -91 0 -10 -145 -44 -259 -61 -127 -18 -394 -6 -556 25 -183 36 -184 36 -238 -24 -38 -42 -147 -237 -147 -263 0 -7 131 -94 149 -100 5 -1 26 20 47 47 37 49 37 49 233 42 108 -4 199 -10 203 -14 3 -4 9 -56 13 -116 8 -109 8 -109 -21 -103 -16 4 -81 14 -144 23 -135 19 -155 14 -199 -46 -39 -54 -94 -186 -95 -230 -1 -31 3 -37 49 -62 60 -33 62 -33 -152 -16 -181 14 -164 -30 -128 341 27 282 25 326 -20 403 -45 77 -113 111 -182 92 -90 -25 -183 -122 -203 -211 -5 -26 -10 -159 -10 -294 0 -246 0 -246 -58 -240 -32 4 -121 24 -197 47 -77 22 -151 40 -166 40 -39 0 -102 -53 -188 -161 -116 -143 -112 -126 -47 -224 55 -84 55 -84 106 -50 83 56 95 57 321 22 201 -32 201 -32 194 -112 -4 -44 -9 -82 -11 -84 -2 -3 -62 12 -133 32 -70 21 -143 38 -162 39 -47 2 -95 -26 -122 -69 -12 -20 -50 -79 -85 -131 -63 -94 -63 -94 -6 -188 31 -52 59 -94 62 -94 2 0 22 18 43 39 64 67 83 73 237 72 75 -1 138 -3 140 -6 5 -5 -16 -153 -29 -207 -11 -43 -64 -93 -108 -103 -17 -4 -31 -9 -31 -13 0 -3 12 -48 26 -99 31 -109 11 -102 221 -78 150 18 206 34 246 72 36 35 44 71 53 226 7 127 7 127 34 127 45 0 132 -30 178 -62 54 -37 93 -38 168 -4 74 34 119 68 150 115 44 67 31 133 -37 183 -56 42 -250 88 -373 88 -33 0 -67 4 -74 9 -9 5 -12 29 -10 82 3 74 3 74 62 72 95 -3 160 -21 231 -65 50 -30 78 -40 107 -40 46 1 153 48 209 93 90 71 118 183 63 249 -33 39 -74 60 -132 69 -25 3 -47 11 -49 17 -2 7 16 21 40 33 35 17 62 21 140 21 101 0 139 -9 173 -41 45 -43 112 -24 221 63 139 110 153 159 78 268 -48 69 -65 114 -65 167 0 39 0 39 42 13 18 -11 47 -20 63 -20 59 0 188 95 235 173 24 38 26 101 5 141 -9 16 -13 31 -11 34 3 2 38 -15 78 -38 255 -150 495 -378 662 -629 31 -46 56 -89 56 -94 0 -25 -404 18 -634 68 -90 19 -179 35 -199 35 -62 0 -94 -40 -201 -247 -79 -152 -94 -189 -84 -199 7 -7 51 -40 98 -73 84 -60 84 -60 114 -6 39 73 81 100 156 98 30 -1 227 -16 437 -32 389 -31 420 -36 483 -81 33 -23 99 -28 143 -11 46 18 136 79 189 129 77 71 108 118 108 164 0 35 -8 48 -58 101 -32 34 -100 123 -152 197 -143 207 -230 312 -389 471 -234 233 -432 370 -781 537 -403 194 -1062 420 -1667 571 -89 23 -166 41 -171 41 -6 0 -17 -19 -26 -41z m904 -305 c91 -31 196 -67 233 -80 37 -13 82 -30 100 -38 18 -7 59 -24 92 -36 144 -54 328 -132 490 -210 61 -29 120 -56 133 -61 13 -5 43 -23 67 -39 24 -17 46 -30 50 -30 11 0 188 -122 260 -179 125 -98 266 -229 325 -299 8 -10 47 -54 85 -97 85 -97 169 -208 255 -335 34 -52 78 -114 96 -136 33 -42 33 -42 -14 -86 -26 -24 -77 -65 -113 -91 -67 -47 -67 -47 -110 -23 -61 34 -169 54 -355 66 -88 6 -211 15 -274 20 -186 16 -413 23 -454 16 -21 -4 -54 -22 -76 -43 -40 -35 -40 -35 24 88 35 68 72 133 83 145 20 22 20 22 124 3 264 -47 662 -92 774 -87 65 3 70 5 73 27 15 101 -161 402 -300 513 -22 18 -61 53 -87 77 -44 41 -180 152 -266 216 -43 32 -294 195 -301 195 -2 0 -27 15 -56 34 -64 40 -278 160 -368 206 -184 93 -437 215 -530 255 -91 38 -169 77 -145 71 11 -3 94 -30 185 -62z m-33 -729 c198 -39 577 -43 738 -9 115 24 136 24 146 -4 8 -21 1 -32 -55 -88 -35 -35 -72 -64 -81 -64 -9 0 -30 7 -48 17 -21 11 -59 16 -112 17 -80 1 -80 1 -83 -32 -2 -19 4 -57 12 -85 8 -29 27 -90 40 -137 14 -47 37 -102 52 -124 14 -21 22 -41 17 -45 -5 -3 -36 -27 -69 -52 -80 -62 -80 -62 -111 -46 -44 23 -256 41 -333 29 -36 -6 -75 -13 -87 -17 -22 -7 -22 -7 -5 41 34 95 18 89 193 70 245 -26 223 -37 216 107 -3 67 -10 142 -16 167 -5 25 -14 63 -18 85 -8 40 -8 40 -262 48 -183 6 -261 6 -279 -3 -13 -6 -27 -9 -29 -6 -11 11 75 146 93 146 1 0 38 -7 81 -15z m-495 -62 c49 -56 58 -123 30 -228 -15 -54 -42 -362 -42 -469 0 -62 3 -86 13 -86 6 0 77 -7 157 -16 80 -8 209 -18 287 -22 131 -7 144 -10 168 -32 14 -13 25 -31 25 -41 0 -31 -49 -77 -116 -110 -64 -32 -64 -32 -122 -1 -72 39 -217 72 -343 79 -96 6 -96 6 -109 -171 -7 -97 -10 -179 -6 -183 3 -3 77 -14 163 -24 87 -10 188 -23 225 -29 67 -12 118 -39 118 -65 0 -15 -59 -69 -99 -89 -27 -14 -32 -14 -82 13 -30 16 -74 33 -99 39 -84 20 -185 34 -215 31 -30 -4 -30 -4 -43 -179 -7 -96 -14 -185 -17 -196 -6 -27 -61 -50 -140 -58 -33 -4 -79 -9 -102 -12 -49 -6 -61 15 -19 34 51 23 75 71 98 203 12 68 23 151 23 184 0 60 0 60 -85 71 -165 23 -310 26 -370 10 -30 -8 -56 -13 -57 -12 -5 5 86 132 111 155 26 24 26 24 108 3 125 -33 225 -52 268 -52 33 0 40 4 44 23 10 48 26 314 21 329 -7 18 -11 19 -240 53 -195 29 -338 32 -392 10 -25 -11 -33 -11 -26 -3 101 133 146 187 158 192 9 3 54 -5 101 -19 113 -33 347 -77 387 -73 32 3 32 3 32 309 1 307 1 307 30 349 37 53 93 100 121 100 11 0 28 -8 36 -17z"></path><path id="p13fsp5zS9" d="M5509 2433 c-32 -36 -29 -40 54 -88 267 -155 677 -451 850 -614 116 -110 245 -283 263 -355 7 -29 7 -29 -86 -23 -149 11 -353 44 -510 82 -80 20 -162 36 -182 37 -65 1 -123 -59 -207 -212 -41 -75 -41 -75 -41 -5 0 81 -23 141 -73 193 -41 43 -101 74 -142 74 -52 0 -93 -28 -219 -149 -66 -63 -128 -119 -139 -124 -19 -11 -19 -5 -12 343 12 597 13 559 -10 597 -39 67 -117 99 -193 79 -84 -21 -207 -152 -237 -252 -12 -40 -11 -50 11 -112 24 -69 24 -69 24 -802 0 -596 -3 -739 -14 -765 -16 -40 -69 -86 -107 -94 -16 -3 -29 -7 -29 -8 0 -1 18 -43 39 -91 30 -67 45 -90 61 -92 39 -6 271 28 322 48 62 23 122 64 143 97 18 26 17 57 -4 158 -5 28 -10 165 -10 306 -1 256 -1 256 89 269 50 7 93 10 97 6 12 -11 -36 -140 -92 -252 -30 -59 -54 -108 -52 -109 1 0 32 -27 68 -58 36 -31 73 -57 81 -57 8 0 42 13 74 30 32 16 60 27 63 25 2 -3 -8 -20 -23 -39 -27 -35 -27 -35 11 -69 119 -107 110 -101 156 -87 64 19 167 74 214 114 85 74 111 192 60 279 -31 53 -99 92 -181 105 -49 8 -62 15 -88 47 -35 41 -136 95 -180 95 -16 0 -28 5 -28 10 0 6 7 10 15 10 36 0 144 45 208 86 69 45 69 45 63 7 -5 -38 -4 -39 77 -105 71 -59 83 -65 92 -51 21 35 80 95 106 109 16 8 56 14 94 14 84 0 739 -67 784 -80 19 -5 51 -21 72 -35 77 -54 179 -19 315 108 134 125 148 177 67 261 -28 28 -69 83 -93 121 -145 236 -398 491 -649 656 -194 128 -462 246 -743 328 -180 52 -210 57 -229 34z m461 -198 c86 -36 199 -94 251 -128 26 -18 77 -50 114 -72 232 -140 490 -382 648 -609 34 -49 86 -121 115 -160 29 -39 51 -78 50 -86 -2 -8 -49 -50 -106 -93 -103 -77 -103 -77 -145 -53 -53 31 -108 41 -342 65 -267 28 -522 44 -642 40 -97 -4 -103 -5 -132 -33 -17 -17 -31 -27 -31 -23 0 16 76 176 101 213 46 67 44 67 160 44 213 -41 674 -100 780 -100 41 0 41 0 37 58 -11 143 -166 362 -407 574 -140 124 -268 219 -408 305 -60 36 -117 72 -128 80 -19 14 -19 15 5 8 14 -4 50 -18 80 -30z m-1038 -75 c10 0 23 -17 33 -45 16 -41 16 -56 4 -177 -8 -84 -13 -267 -14 -493 0 -360 0 -360 43 -363 36 -3 52 3 112 43 38 26 124 99 191 164 66 64 127 119 134 123 16 10 83 -55 101 -98 40 -95 -14 -163 -173 -219 -77 -27 -234 -60 -336 -70 -68 -7 -68 -7 -64 -364 2 -196 7 -367 11 -381 7 -23 3 -29 -41 -52 -46 -25 -200 -68 -242 -68 -31 0 -25 15 14 38 70 42 68 4 62 897 -4 673 -8 805 -20 834 -18 43 -11 72 37 141 48 70 86 102 111 95 11 -2 28 -5 37 -5z m484 -1332 c68 -45 71 -80 15 -141 -52 -56 -154 -113 -169 -94 -8 9 -5 23 12 53 12 21 35 79 50 127 15 48 31 87 36 87 4 0 30 -15 56 -32z m282 -155 c50 -38 45 -74 -21 -138 -57 -55 -155 -111 -170 -96 -5 5 9 35 35 73 39 57 76 131 92 181 6 20 12 18 64 -20z"></path><path id="pyLwi3Jx" d="M3279 2297 c-29 -34 -59 -70 -67 -79 -13 -15 -10 -22 20 -60 58 -72 120 -199 105 -214 -11 -11 -117 79 -134 114 -21 43 -61 56 -117 37 -36 -13 -36 -13 -37 19 0 17 -12 56 -27 86 -22 43 -36 59 -72 78 -65 32 -245 47 -418 33 -235 -19 -301 -65 -302 -211 0 -34 0 -34 -64 36 -47 51 -81 78 -132 103 -66 32 -261 111 -275 111 -4 0 -15 -22 -25 -50 -10 -27 -21 -50 -24 -50 -4 0 -21 20 -39 45 -20 28 -37 43 -44 38 -110 -66 -148 -95 -142 -111 22 -54 45 -128 45 -144 0 -16 -8 -13 -46 21 -49 43 -135 81 -184 81 -20 0 -35 8 -49 28 -32 45 -109 81 -202 93 -116 16 -457 6 -525 -15 -64 -20 -111 -52 -133 -91 -9 -16 -17 -32 -19 -34 -1 -3 -12 5 -25 16 -55 51 -132 60 -192 23 -40 -25 -97 -99 -126 -164 -20 -46 -20 -46 44 -109 59 -59 147 -187 147 -215 0 -8 -25 -12 -83 -12 -83 0 -83 0 -100 -102 -10 -57 -17 -109 -17 -115 0 -10 25 -13 93 -13 90 -1 91 -1 65 -17 -14 -9 -31 -27 -37 -40 -7 -15 -11 -105 -11 -233 0 -210 0 -210 -33 -210 -33 0 -33 0 -55 -93 -12 -50 -22 -95 -22 -99 0 -5 254 -8 564 -8 564 0 564 0 620 -95 57 -96 57 -96 148 -13 49 46 103 93 118 106 66 52 91 140 50 177 -12 11 -42 19 -83 22 -64 6 -64 6 4 73 79 77 88 109 44 150 -22 21 -25 32 -25 94 -1 39 -7 89 -15 111 -15 40 -15 40 18 70 67 61 97 105 97 144 0 71 -46 100 -160 102 -44 0 -50 2 -32 9 81 33 172 137 172 198 0 12 4 22 9 22 23 0 31 -173 31 -675 0 -416 3 -525 13 -525 7 0 75 14 152 30 110 24 164 30 257 30 118 0 118 0 118 -76 0 -77 0 -77 117 -70 268 16 311 30 327 104 9 38 13 42 41 42 29 0 35 -6 79 -91 43 -81 50 -89 65 -76 9 7 68 57 132 110 64 54 124 108 133 122 22 33 20 71 -4 105 -18 26 -19 30 -5 56 8 16 15 37 15 47 0 13 8 17 35 17 35 0 35 0 35 -185 0 -213 -21 -194 189 -174 153 14 179 23 197 65 8 18 14 42 14 52 0 16 16 21 113 35 62 9 152 17 200 17 87 0 87 0 87 -125 0 -125 0 -125 44 -125 64 0 270 28 340 46 77 20 164 64 200 102 30 33 37 82 17 121 -10 18 -8 27 14 55 26 34 32 74 15 106 -14 26 -70 40 -160 40 -75 1 -75 1 51 123 129 127 144 150 130 206 -4 15 -24 37 -46 51 -29 19 -47 44 -76 104 -22 44 -39 85 -39 92 0 6 34 37 75 68 75 57 75 57 44 118 -32 64 -33 76 -11 193 17 90 -27 194 -99 231 -39 20 -118 20 -156 1 -39 -20 -97 -85 -124 -139 -12 -24 -23 -44 -24 -46 -1 -2 -36 22 -76 53 -63 47 -239 145 -261 145 -12 0 -99 -163 -91 -171 4 -4 31 -26 58 -49 28 -24 56 -52 64 -63 13 -18 12 -19 -9 -12 -12 4 -46 10 -76 14 -54 8 -54 8 -54 -23 -1 -27 -6 -21 -42 48 -41 77 -172 229 -239 276 -27 20 -27 20 -80 -43z m-1350 -127 c80 -41 112 -65 178 -133 81 -83 81 -83 9 -100 -90 -21 -96 -21 -96 -1 0 28 -67 159 -97 190 -16 16 -46 44 -68 62 -22 17 -36 32 -31 32 4 0 52 -23 105 -50z m909 40 c48 -12 102 -47 102 -67 0 -8 -20 -22 -45 -33 -42 -18 -45 -22 -45 -56 0 -30 7 -43 32 -64 32 -27 32 -27 -10 -72 -40 -43 -55 -91 -35 -111 4 -4 5 -56 4 -116 -2 -108 -2 -108 25 -128 27 -20 27 -20 -57 -72 -46 -28 -86 -51 -90 -51 -21 0 -32 36 -30 100 2 52 -1 70 -11 70 -11 0 -11 2 0 9 9 5 12 28 10 77 -3 69 -3 69 -38 74 -35 5 -35 5 -36 71 -1 39 -9 79 -18 97 -15 30 -20 32 -71 32 -55 0 -55 0 -55 -99 0 -64 -4 -101 -11 -103 -16 -5 -25 -148 -10 -148 8 0 8 -5 -1 -19 -9 -14 -9 -34 -2 -75 10 -55 10 -56 -14 -56 -22 0 -24 -3 -20 -45 3 -42 1 -45 -24 -51 -16 -3 -28 -12 -28 -21 0 -8 -5 -12 -12 -9 -7 3 -21 9 -30 12 -21 8 -32 87 -18 134 6 22 8 82 3 158 -6 120 -6 122 15 122 22 0 22 2 22 180 0 228 5 237 136 259 70 12 311 12 362 1z m1526 -23 c30 -39 32 -57 10 -120 -9 -28 -14 -69 -12 -102 3 -55 3 -55 -38 -55 -40 0 -42 -2 -59 -46 -32 -85 -31 -117 7 -191 20 -38 51 -107 69 -156 22 -57 40 -89 53 -93 16 -5 10 -15 -40 -65 -32 -32 -61 -55 -65 -51 -3 4 -12 29 -19 55 -13 47 -14 48 -49 45 -34 -3 -36 -5 -43 -48 -4 -25 -8 -117 -9 -205 0 -88 -2 -206 -3 -262 -1 -115 7 -106 -98 -118 -58 -7 -58 -7 -58 114 0 121 0 121 -162 121 -90 0 -179 -4 -198 -9 -19 -5 -54 -12 -77 -15 -43 -6 -43 -6 -43 85 0 91 0 91 -45 87 -36 -2 -46 0 -51 14 -4 13 -16 18 -45 18 -39 0 -39 0 -39 -170 0 -192 8 -176 -92 -182 -47 -3 -47 -3 -53 87 -3 49 -5 126 -4 170 2 44 2 204 1 356 -1 277 -1 277 -47 283 -52 8 -51 5 -32 133 12 82 12 82 152 -22 125 -93 144 -104 183 -105 41 0 42 1 42 33 0 43 -18 141 -35 193 -23 69 -76 178 -98 203 -12 14 -1 8 26 -13 26 -21 47 -43 47 -49 0 -5 15 -28 33 -51 53 -65 122 -209 143 -299 4 -16 13 -31 20 -34 10 -3 14 -23 14 -62 0 -63 19 -298 27 -321 2 -8 5 -82 6 -165 2 -150 2 -150 162 -150 160 0 160 0 167 60 3 33 8 110 10 170 3 110 3 110 -36 113 -33 3 -47 -3 -96 -41 -58 -45 -58 -45 -79 -16 -12 16 -17 29 -10 29 17 0 6 305 -11 343 -9 18 -24 30 -42 34 -23 4 -26 8 -18 24 6 10 10 56 10 103 0 80 1 86 20 86 31 0 82 -25 107 -51 48 -53 56 -92 62 -299 6 -195 6 -195 54 -198 26 -2 47 -2 47 0 0 2 9 71 20 153 35 256 36 275 11 324 -46 88 -97 158 -170 231 -42 41 -85 81 -96 88 -11 7 0 2 24 -10 24 -13 90 -60 146 -105 87 -70 109 -83 140 -83 36 0 37 1 80 94 67 143 127 181 179 113z m-3252 -7 c48 -24 63 -43 73 -97 6 -30 4 -32 -33 -42 -21 -6 -47 -20 -56 -30 -17 -19 -18 -19 -52 1 -32 19 -44 20 -219 13 -169 -7 -187 -9 -196 -27 -6 -11 -9 -67 -7 -133 3 -113 3 -113 -71 -124 -41 -6 -77 -9 -80 -6 -3 4 -5 92 -4 197 1 184 2 191 25 215 13 14 32 30 43 36 27 15 208 25 385 23 129 -3 150 -5 192 -26z m557 -88 c36 -74 65 -146 89 -222 21 -65 52 -289 52 -372 0 -46 3 -100 6 -120 6 -32 11 -38 33 -39 26 -2 26 -2 -1 -6 -28 -4 -28 -4 -28 -134 0 -129 0 -129 85 -129 85 0 85 0 85 45 0 29 -11 69 -30 112 -31 67 -31 67 -2 40 21 -20 38 -27 69 -27 42 0 42 0 45 48 3 43 5 47 31 50 16 2 39 -4 53 -13 21 -13 24 -23 24 -75 0 -60 0 -60 40 -60 31 0 43 5 56 26 11 16 20 22 27 15 19 -19 -2 -40 -62 -62 -60 -21 -61 -22 -61 -60 0 -39 0 -39 55 -39 30 0 55 -4 55 -8 0 -4 -24 -8 -52 -7 -53 0 -53 0 -56 -51 -3 -46 0 -54 24 -73 25 -20 39 -21 200 -21 174 0 174 0 174 75 0 75 0 75 -72 76 -40 1 -61 4 -45 6 43 7 38 61 -14 142 -22 35 -39 65 -37 66 2 2 22 -10 46 -26 29 -20 55 -29 82 -29 40 0 40 0 40 48 0 54 12 72 50 72 46 0 59 -19 62 -90 3 -65 3 -65 43 -65 37 0 42 4 76 55 20 30 46 63 57 73 20 19 21 18 31 -20 6 -21 11 -42 11 -48 0 -5 -37 -28 -83 -50 -82 -40 -82 -40 -85 -82 -3 -43 -3 -43 69 -43 72 0 72 0 54 -20 -16 -18 -20 -19 -27 -5 -7 11 -26 15 -73 15 -65 0 -65 0 -65 -53 0 -47 3 -56 30 -75 23 -17 43 -22 92 -22 63 -1 63 -1 8 -50 -30 -27 -58 -50 -61 -50 -3 0 -16 20 -28 45 -23 45 -23 45 -179 43 -157 -3 -157 -3 -160 -42 -3 -32 1 -43 19 -57 22 -17 22 -17 -47 -23 -38 -4 -86 -8 -106 -10 -37 -4 -37 -4 -40 63 -3 66 -3 66 -203 65 -141 0 -220 -5 -267 -16 -68 -15 -68 -15 -68 356 0 204 -5 439 -10 521 -11 155 -45 383 -61 400 -12 13 -11 28 1 20 6 -4 28 -41 49 -83z m-1369 -44 c20 -47 26 -156 11 -221 -6 -28 -7 -28 -33 25 -14 29 -49 79 -78 110 -51 58 -51 58 -15 102 20 25 42 47 48 49 22 7 46 -17 67 -65z m1115 -34 c41 -63 16 -128 -69 -178 -50 -29 -126 -59 -134 -52 -2 3 5 17 16 33 31 44 89 164 101 211 12 43 12 43 42 25 16 -10 36 -28 44 -39z m1625 -4 c0 -58 -10 -64 -30 -17 -7 17 -15 35 -17 38 -3 4 28 24 45 28 1 1 2 -21 2 -49z m-34 -225 c-23 -150 -24 -142 34 -150 50 -7 50 -7 50 -166 0 -159 0 -159 -35 -159 -30 0 -39 6 -70 52 -19 29 -35 59 -35 67 0 7 14 29 30 48 22 25 30 44 30 72 0 31 -6 44 -30 64 -29 25 -30 27 -30 121 0 92 1 97 33 139 17 24 33 37 35 30 2 -7 -4 -60 -12 -118z m-2057 60 c17 -20 31 -40 31 -45 0 -22 -65 -70 -122 -89 -88 -30 -93 -27 -51 27 21 26 49 69 63 95 14 26 30 47 36 47 7 0 26 -16 43 -35z m1121 -45 c17 -17 20 -34 21 -100 0 -44 0 -114 1 -156 0 -41 -2 -77 -3 -78 -2 -2 -39 -7 -81 -11 -78 -7 -78 -7 -78 163 0 94 3 177 6 186 10 25 108 22 134 -4z m-1320 -219 c-63 -7 -56 13 -52 -166 2 -85 2 -85 93 -85 90 0 90 0 87 130 -3 130 -3 130 272 130 275 -1 275 -1 221 -51 -54 -51 -54 -51 -83 -5 -28 46 -28 46 -138 46 -111 0 -111 0 -108 -122 3 -123 3 -123 83 -123 76 0 79 1 85 25 8 35 74 41 113 10 26 -21 27 -25 27 -121 0 -79 3 -101 15 -105 8 -4 15 -10 15 -15 0 -9 -123 -99 -137 -99 -5 0 -17 14 -27 30 -17 31 -18 31 -94 28 -77 -3 -77 -3 -77 -109 0 -106 0 -106 -125 -113 -69 -3 -267 -5 -440 -4 -213 2 -254 3 -128 5 188 3 188 3 185 226 -2 222 -2 222 -77 222 -75 0 -75 0 -75 -110 0 -110 0 -110 40 -116 40 -6 40 -6 3 -8 -20 0 -47 -5 -60 -10 -13 -5 -47 -12 -75 -16 -53 -7 -53 -7 -53 149 0 140 2 156 18 165 23 12 104 -5 115 -25 6 -10 29 -14 88 -14 80 0 80 0 77 123 -3 122 -3 122 -198 127 -162 5 -139 6 135 6 182 0 305 -2 275 -5z m3623 -568 c-21 -8 -16 -81 7 -110 16 -20 18 -29 8 -40 -14 -18 -54 -38 -91 -47 -28 -7 -28 -7 -12 23 22 44 19 117 -6 152 -20 29 -20 29 43 28 35 0 57 -3 51 -6z m-2957 -142 c-3 -5 -32 -32 -65 -60 -59 -51 -59 -51 -81 -6 -12 25 -27 48 -33 52 -7 5 24 11 68 14 44 3 88 6 98 7 10 1 16 -2 13 -7z"></path><path id="p1C4J7MBwP" d="M2535 2103 c-70 -14 -66 -12 -63 -51 3 -37 3 -37 68 -49 226 -42 219 -41 168 -42 -48 -1 -48 -1 -48 -39 0 -53 23 -72 88 -72 47 0 52 2 58 25 3 14 4 39 2 55 -3 22 0 31 14 36 14 4 18 15 18 48 0 54 -16 75 -65 86 -40 9 -202 12 -240 3z"></path><path id="p1428FkEjx" d="M3345 1709 c-3 -8 -4 -122 -3 -254 3 -240 3 -240 93 -240 90 0 90 0 87 240 -2 132 -7 243 -11 247 -4 5 -41 11 -84 14 -61 6 -78 4 -82 -7z"></path><path id="ppOXGK6Uv" d="M1827 1054 c-4 -4 -7 -38 -7 -76 0 -68 0 -68 125 -68 126 0 126 0 123 73 -3 72 -3 72 -119 75 -63 1 -118 -1 -122 -4z"></path><path id="pV6S8dRQ1" d="M700 1211 c0 -110 0 -110 33 -120 32 -9 32 -9 -1 -10 -33 -1 -33 -1 -30 -103 3 -103 3 -103 93 -103 90 0 90 0 93 102 3 113 9 101 -63 116 -11 3 -1 5 23 6 43 1 43 1 40 109 -3 107 -3 107 -95 110 -93 3 -93 3 -93 -107z"></path><path id="pZ8Vlh0h9" d="M1047 1313 c-4 -3 -7 -53 -7 -110 0 -104 0 -104 83 -101 82 3 82 3 85 78 2 41 0 90 -3 108 -6 32 -6 32 -79 32 -40 0 -76 -3 -79 -7z"></path><path id="p1B5OfJXFQ" d="M9783 1264 c-20 -7 -49 -25 -64 -41 -34 -35 -182 -311 -174 -324 4 -5 39 -34 78 -63 71 -55 71 -55 114 -15 58 53 78 59 191 59 108 0 190 -15 302 -54 98 -35 146 -35 213 -2 101 49 180 148 180 226 0 109 -77 148 -328 170 -66 6 -183 19 -260 29 -198 28 -212 29 -252 15z m322 -128 c338 -32 374 -39 398 -78 14 -22 -26 -75 -90 -117 -52 -35 -56 -35 -148 -1 -122 45 -454 67 -530 36 -34 -15 -34 -15 -22 12 20 47 88 152 105 162 18 11 23 11 287 -14z"></path><path id="pdLEuALzz" d="M6138 902 c-41 -5 -115 -77 -150 -146 -16 -33 -46 -87 -65 -119 -35 -57 -35 -57 39 -136 73 -79 73 -79 96 -50 76 95 260 101 486 18 100 -37 165 -40 225 -10 142 73 215 227 146 310 -36 42 -99 59 -272 76 -82 8 -210 23 -284 34 -166 25 -187 27 -221 23z m194 -122 c73 -11 185 -24 248 -30 261 -22 294 -44 206 -133 -69 -68 -92 -74 -169 -43 -90 36 -230 58 -382 59 -119 2 -133 0 -168 -21 -39 -22 -39 -22 0 49 35 65 100 139 122 139 5 0 69 -9 143 -20z"></path></g></g><g id="l4QtvCJGqMcqHvRoJ5zqiI4" fill="rgb(91,30,25)" style="transform: none;"><g><path id="pf7e8U73q" d="M10455 5114 c-11 -2 -47 -9 -80 -15 -314 -57 -644 -298 -739 -539 -66 -168 -80 -289 -47 -420 52 -207 181 -378 399 -528 213 -147 452 -217 716 -210 139 3 139 3 165 -77 15 -44 37 -100 48 -125 32 -67 131 -300 163 -385 8 -22 44 -108 70 -170 10 -22 23 -56 30 -75 7 -19 17 -39 22 -44 4 -6 8 -16 8 -24 0 -7 14 -40 30 -74 17 -33 30 -67 30 -77 0 -9 7 -25 15 -35 8 -10 12 -22 10 -27 -3 -4 -1 -10 5 -14 5 -3 10 -13 10 -22 0 -14 -15 -15 -122 -10 -150 7 -206 24 -319 98 -46 31 -89 58 -96 62 -12 7 -63 -11 -63 -22 0 -12 26 -81 33 -87 4 -4 7 -14 7 -23 0 -18 47 -111 105 -207 77 -128 211 -223 341 -241 25 -3 47 -10 50 -15 5 -9 -9 -65 -74 -278 -19 -63 -47 -158 -62 -210 -125 -426 -190 -579 -320 -758 -48 -65 -62 -71 -113 -48 -113 52 -259 109 -344 135 -111 34 -212 55 -220 47 -3 -3 -6 -22 -7 -42 -1 -36 0 -37 49 -50 263 -74 393 -139 762 -385 91 -60 168 -109 173 -109 27 0 239 360 301 510 12 30 26 59 30 64 4 5 41 -16 81 -46 40 -30 89 -65 108 -78 57 -40 320 -254 380 -310 84 -78 78 -78 153 -1 83 86 149 121 229 121 101 0 216 -67 259 -152 21 -40 38 -47 62 -23 32 32 -34 181 -125 282 -126 139 -279 230 -410 242 -78 7 -54 -33 -238 406 -35 83 -89 211 -120 285 -116 276 -106 241 -86 318 10 37 20 69 23 72 2 2 106 5 231 5 227 0 227 0 277 -29 133 -77 121 -73 144 -52 20 18 20 18 -4 81 -56 150 -146 294 -216 344 -65 48 -190 89 -248 82 -14 -1 -35 0 -48 4 -19 4 -23 10 -18 28 18 68 39 134 46 149 5 10 9 25 9 34 0 17 26 112 40 149 5 11 16 47 25 80 53 192 178 570 230 690 9 22 22 58 29 80 18 56 108 245 117 245 4 0 36 -13 72 -29 108 -48 269 -103 276 -94 15 18 29 60 23 70 -4 5 -34 20 -67 33 -33 12 -127 56 -210 95 -142 68 -191 101 -346 228 -32 26 -64 47 -71 47 -37 -1 -264 -380 -307 -512 -7 -21 -17 -38 -23 -38 -18 0 -312 227 -378 292 -35 35 -97 104 -138 153 -41 50 -80 89 -87 89 -7 -1 -41 -24 -76 -51 -139 -108 -255 -162 -404 -187 -287 -49 -575 -14 -732 90 -66 45 -91 76 -140 179 -35 74 -38 88 -41 185 -8 238 83 417 291 572 74 54 194 119 262 140 183 57 368 77 556 59 148 -13 149 -13 149 50 0 33 -3 37 -32 43 -41 8 -446 17 -473 10z m672 -1287 c49 -72 54 -64 -75 -138 -80 -46 -120 -61 -231 -90 -139 -36 -400 -19 -535 34 -89 34 -83 45 21 40 123 -7 308 19 438 62 114 37 252 104 281 136 31 34 56 23 101 -44z m985 17 c35 -25 64 -50 66 -54 2 -5 -19 -44 -46 -87 -101 -162 -138 -244 -197 -438 -15 -49 -31 -97 -36 -106 -4 -9 -11 -34 -15 -55 -3 -22 -10 -44 -15 -49 -4 -6 -13 -33 -19 -60 -6 -28 -14 -59 -19 -70 -5 -11 -20 -65 -34 -120 -31 -127 -62 -250 -87 -345 -10 -41 -24 -100 -31 -130 -6 -30 -15 -62 -19 -70 -4 -8 -11 -34 -14 -56 -7 -41 -7 -41 166 -47 169 -5 174 -5 234 -36 67 -34 173 -136 157 -152 -5 -5 -22 -5 -43 1 -74 21 -211 30 -388 23 -182 -6 -182 -6 -197 -57 -8 -28 -41 -159 -75 -291 -34 -132 -70 -271 -80 -310 -11 -38 -36 -128 -56 -200 -33 -120 -68 -230 -109 -345 -50 -141 -218 -436 -256 -449 -6 -2 -48 22 -94 53 -84 55 -84 55 -11 163 39 59 83 128 98 153 38 66 129 311 188 505 70 227 220 754 220 771 0 2 -44 4 -97 4 -193 0 -266 36 -377 183 -15 21 -25 41 -22 44 3 3 29 -4 59 -16 29 -12 76 -28 103 -35 54 -14 264 -19 333 -8 44 7 45 8 59 62 8 30 25 91 38 135 22 76 58 225 70 290 3 17 10 38 15 47 5 9 9 29 9 45 1 15 8 46 16 68 8 22 24 78 35 125 10 47 25 108 33 135 8 28 24 91 36 140 12 50 28 104 35 120 8 17 24 59 35 95 42 128 232 470 261 470 5 0 37 -21 71 -46z m-722 -274 c25 -23 96 -75 158 -116 108 -72 123 -89 103 -109 -6 -6 -14 -28 -20 -50 -5 -22 -19 -71 -30 -110 -34 -113 -58 -207 -66 -249 -3 -21 -10 -46 -15 -55 -9 -15 -34 -124 -46 -196 -3 -16 -8 -37 -12 -45 -3 -8 -6 -19 -7 -25 -1 -5 -5 -20 -9 -32 -4 -13 -13 -55 -19 -95 -7 -39 -18 -73 -24 -75 -15 -5 -54 78 -134 282 -24 61 -46 112 -50 115 -4 3 -11 19 -15 35 -4 17 -18 53 -31 82 -12 28 -23 55 -23 58 0 3 -11 30 -24 58 -74 158 -166 374 -166 389 0 7 33 24 76 38 42 13 124 50 183 82 58 31 111 57 116 57 6 1 31 -17 55 -39z m339 -2288 c64 -157 190 -459 217 -519 20 -45 18 -50 -23 -58 -21 -4 -78 -26 -126 -50 -88 -43 -88 -43 -208 37 -66 44 -123 86 -126 93 -2 8 9 56 25 107 53 161 105 347 146 521 3 15 12 27 19 27 6 0 41 -71 76 -158z m462 -658 c39 -6 196 -100 185 -111 -3 -3 -60 -6 -128 -7 -131 -1 -170 -13 -241 -72 -16 -13 -33 -24 -38 -24 -12 0 -149 111 -149 120 0 26 108 81 190 96 62 12 88 12 181 -2z"></path><path id="ptyJfoUds" d="M4273 3763 c-23 -4 -23 -4 -23 -234 0 -145 -4 -229 -10 -229 -5 0 -28 16 -50 36 -41 37 -41 37 -60 16 -20 -21 -20 -21 10 -71 59 -101 100 -189 135 -286 49 -140 51 -135 -44 -135 -79 0 -79 0 -83 -30 -5 -30 -5 -30 203 -30 208 0 208 0 214 -78 7 -77 7 -77 107 -69 55 4 109 12 119 17 22 12 15 37 -12 45 -14 5 -19 16 -19 41 0 34 0 34 108 34 107 0 107 0 131 -50 13 -28 27 -53 31 -55 11 -7 180 124 180 140 0 7 -5 17 -11 21 -6 4 -120 6 -253 5 -254 -2 -273 2 -161 37 71 21 82 43 36 70 -48 27 -41 46 15 38 26 -3 63 -6 84 -6 29 0 39 -5 50 -25 18 -34 34 -32 90 15 26 22 51 40 54 40 14 0 66 44 66 56 0 7 -15 25 -34 39 -19 14 -37 38 -41 53 -18 75 -97 238 -146 301 -11 13 -16 28 -12 31 10 9 129 50 146 50 6 0 29 5 50 11 30 8 37 15 37 34 0 20 -5 25 -24 25 -20 0 -27 8 -39 43 -9 23 -18 54 -21 70 -4 18 -13 27 -26 27 -33 0 -119 -39 -192 -85 -38 -25 -74 -45 -80 -45 -6 0 -33 14 -61 31 -55 34 -129 68 -196 89 -40 13 -44 13 -58 -6 -12 -17 -12 -20 3 -29 93 -55 224 -159 224 -178 0 -6 -13 -25 -29 -42 -17 -16 -53 -77 -81 -133 -51 -104 -51 -104 -76 -87 -30 19 -54 14 -54 -13 0 -10 18 -54 40 -97 22 -43 42 -93 46 -112 3 -18 9 -33 13 -33 4 0 12 -26 19 -57 7 -32 15 -68 18 -80 6 -22 4 -23 -75 -23 -44 0 -81 4 -81 9 0 4 23 18 50 29 57 24 64 44 21 66 -16 9 -40 35 -53 58 -25 43 -25 46 -32 370 -3 179 -9 333 -12 342 -3 8 -13 17 -22 20 -31 8 -107 14 -129 9z m569 -401 c33 -60 29 -82 -9 -52 -15 12 -41 20 -63 20 -33 0 -38 -3 -43 -27 -19 -96 -37 -143 -57 -143 -14 0 -70 51 -70 64 0 33 169 200 198 194 8 -2 27 -27 44 -56z m60 -143 c33 -155 32 -150 17 -160 -16 -10 -97 -11 -154 -1 -26 5 -41 13 -43 25 -2 10 3 17 12 17 27 0 112 58 124 85 7 14 12 37 12 51 0 37 23 25 32 -17z"></path><path id="p18hhOI9u2" d="M1615 3686 c-8 -73 -26 -96 -77 -96 -23 0 -28 -4 -28 -25 0 -24 2 -24 88 -27 87 -3 87 -3 87 -118 0 -115 0 -115 -185 -118 -185 -2 -185 -2 -208 80 -14 50 -41 111 -68 155 -48 77 -175 203 -204 203 -31 0 -30 -27 1 -66 44 -56 69 -119 85 -217 13 -82 32 -522 29 -699 -1 -51 3 -78 10 -78 6 0 45 9 86 19 74 19 219 28 386 23 82 -2 99 -9 121 -49 11 -19 24 -13 131 60 79 54 87 75 46 113 -24 22 -25 27 -25 151 -1 366 -14 612 -35 653 -20 39 -72 77 -115 84 -128 22 -117 26 -125 -48z m75 -536 c0 -100 0 -100 -180 -100 -180 0 -180 0 -180 39 0 21 -3 66 -6 100 -7 61 -7 61 180 61 186 0 186 0 186 -100z m0 -260 c0 -100 0 -100 -32 -100 -18 0 -99 -2 -180 -3 -148 -3 -148 -3 -148 100 0 103 0 103 180 103 180 0 180 0 180 -100z"></path><path id="p1GhnCA1z6" d="M2454 3740 c-7 -7 -9 -168 -7 -465 3 -455 3 -455 -199 -457 -202 -3 -202 -3 -202 -28 0 -25 0 -25 409 -28 410 -2 410 -2 429 -48 10 -25 25 -48 32 -51 8 -3 29 8 48 23 19 16 53 42 75 58 28 20 41 37 41 53 0 23 0 23 -219 23 -219 0 -219 0 -226 63 -4 34 -5 84 -3 112 3 49 3 49 88 72 145 39 164 46 207 72 47 28 63 56 63 106 0 41 -43 94 -96 120 -43 20 -58 16 -80 -27 -23 -44 -116 -161 -151 -188 -28 -22 -28 -22 -36 277 -6 262 -9 300 -24 311 -20 14 -135 16 -149 2z"></path><path id="pr333neXe" d="M5675 3741 c-69 -9 -100 -23 -117 -54 -7 -13 -14 -77 -16 -160 -4 -138 -4 -138 98 -135 120 3 139 15 102 63 -15 19 -22 42 -22 72 0 55 17 63 141 63 102 0 123 -12 135 -75 8 -45 37 -45 42 0 4 36 23 59 63 75 33 14 38 43 14 89 -26 52 -73 65 -235 67 -80 1 -172 -1 -205 -5z"></path><path id="p6S9cddl2" d="M6457 3743 c-4 -3 -7 -208 -7 -455 0 -371 2 -450 14 -454 7 -3 52 4 99 15 46 12 96 21 111 21 26 0 26 0 26 -116 0 -117 0 -117 83 -110 160 13 186 27 133 73 -25 21 -27 28 -24 85 3 63 3 63 41 66 37 3 37 3 37 -114 0 -117 0 -117 68 -111 37 4 83 7 103 7 21 0 47 8 60 19 23 18 23 18 -4 43 -24 22 -27 33 -27 86 0 57 2 62 24 68 39 9 59 1 81 -33 11 -18 25 -32 31 -33 13 0 157 95 174 115 14 17 1 40 -29 50 -16 5 -18 25 -19 208 -3 350 -13 537 -29 553 -19 19 -126 19 -142 0 -6 -7 -9 -21 -5 -30 5 -14 -7 -16 -117 -16 -68 0 -215 -3 -326 -7 -203 -6 -203 -6 -203 20 0 37 -34 57 -96 57 -28 0 -54 -3 -57 -7z m228 -124 c2 -3 5 -79 6 -169 2 -165 2 -165 -35 -168 -36 -3 -36 -3 -37 80 0 46 -4 120 -7 166 -4 45 -4 86 1 91 8 8 63 8 72 0z m281 -159 c-2 -87 -7 -164 -11 -169 -3 -6 -22 -11 -41 -11 -34 0 -34 0 -34 73 0 39 -3 116 -7 169 -6 97 -6 97 38 100 24 2 47 2 51 0 4 -2 6 -74 4 -162z m284 135 c4 -17 4 -94 2 -173 -5 -142 -5 -142 -44 -142 -22 0 -40 5 -43 13 -2 6 -6 83 -10 169 -6 157 -6 157 22 161 54 8 67 3 73 -28z m3 -442 c3 -43 6 -111 6 -150 0 -73 0 -73 -43 -73 -41 0 -44 2 -50 31 -3 17 -6 82 -6 145 0 113 0 113 33 117 17 2 37 5 43 5 8 1 14 -26 17 -75z m-555 -80 c2 -143 2 -143 -38 -143 -40 0 -40 0 -40 146 0 145 0 145 38 142 37 -3 37 -3 40 -145z m272 1 c0 -145 0 -145 -42 -142 -43 3 -43 3 -46 146 -3 142 -3 142 43 142 45 0 45 0 45 -146z"></path><path id="p13obxU8CA" d="M3521 3722 c-13 -25 -4 -34 59 -55 176 -60 245 -168 244 -382 0 -60 -2 -117 -5 -125 -26 -70 -53 -104 -109 -139 -25 -16 -65 -32 -89 -36 -43 -7 -44 -7 -37 16 33 106 27 206 -19 339 -39 108 -52 135 -99 192 -55 68 -101 98 -149 98 -47 0 -84 -32 -137 -119 -42 -70 -42 -70 -43 -178 -2 -135 20 -204 95 -287 159 -178 505 -194 659 -29 86 91 114 172 106 302 -6 108 -28 165 -94 240 -72 81 -142 125 -251 155 -108 31 -118 31 -131 8z m-169 -279 c48 -44 130 -204 149 -292 12 -57 8 -136 -8 -152 -14 -14 -95 23 -144 68 -64 58 -97 140 -105 262 -7 97 -6 99 19 125 14 14 31 26 37 26 5 0 29 -17 52 -37z"></path><path id="pJDwf6T0W" d="M5326 3686 c-13 -12 -31 -37 -40 -54 -16 -30 -16 -30 49 -93 36 -34 70 -77 77 -96 9 -24 18 -33 35 -33 23 0 23 2 23 109 0 113 -7 146 -35 174 -25 25 -81 22 -109 -7z"></path><path id="phz9i6XJZ" d="M6180 3650 c0 -21 -14 -56 -67 -168 -39 -81 -36 -99 17 -87 44 10 177 101 186 128 25 75 -23 147 -98 147 -31 0 -38 -4 -38 -20z"></path><path id="pWl1jy2XB" d="M5851 3537 c-6 -6 -11 -17 -11 -25 0 -18 -41 -92 -51 -92 -5 0 -11 -16 -15 -35 -3 -19 -13 -39 -22 -44 -13 -7 -15 -27 -13 -115 1 -58 -1 -106 -5 -106 -4 0 -19 11 -33 24 -42 40 -63 37 -75 -9 -12 -45 -23 -65 -35 -65 -5 0 -9 59 -9 131 -1 162 -5 169 -98 169 -41 0 -64 -4 -67 -12 -2 -7 -2 -59 1 -115 5 -103 -1 -121 -28 -89 -21 26 -109 78 -120 71 -17 -11 -11 -44 17 -93 14 -26 31 -53 37 -61 12 -16 32 -69 50 -133 13 -48 13 -48 -29 -48 -50 0 -75 -21 -55 -45 10 -12 25 -14 71 -9 59 7 59 7 59 -79 0 -47 3 -88 8 -90 4 -2 51 0 105 6 101 10 120 22 77 49 -15 10 -20 24 -20 60 0 57 13 61 36 13 24 -51 34 -53 67 -12 16 21 33 37 38 37 5 0 9 -30 9 -66 0 -67 0 -67 58 -60 220 27 322 26 322 0 0 -8 11 -16 25 -20 18 -4 44 5 102 39 98 56 106 68 71 104 -27 28 -27 28 -30 266 -2 188 -6 240 -17 246 -7 5 -40 12 -72 15 -62 7 -99 -4 -99 -29 0 -12 -18 -15 -93 -15 -81 0 -94 2 -105 20 -8 14 -23 20 -47 20 -19 0 -35 5 -35 10 0 6 7 10 15 10 26 0 128 39 137 52 27 43 -7 112 -60 124 -15 3 -32 7 -38 9 -6 2 -17 -2 -23 -8z m251 -330 c2 -18 1 -44 -2 -58 -5 -22 -11 -24 -75 -27 -109 -5 -115 -2 -115 63 0 55 0 55 94 55 94 0 94 0 98 -33z m6 -205 c3 -53 3 -53 -95 -50 -98 3 -98 3 -101 56 -3 53 -3 53 95 50 98 -3 98 -3 101 -56z m-368 -42 c0 -70 0 -70 -75 -70 -75 0 -75 0 -75 33 0 31 4 35 54 56 30 12 60 29 67 37 22 27 29 14 29 -56z m368 -128 c3 -53 3 -53 -95 -50 -98 3 -98 3 -101 56 -3 53 -3 53 95 50 98 -3 98 -3 101 -56z"></path><path id="puPuP0KdY" d="M8055 3341 c-18 -7 -15 -10 19 -25 21 -9 41 -16 44 -16 2 0 23 -9 46 -20 23 -10 77 -33 121 -50 44 -17 112 -45 150 -62 39 -16 97 -42 130 -56 88 -37 346 -161 525 -252 90 -46 304 -166 368 -206 29 -19 54 -34 56 -34 7 0 258 -163 301 -195 86 -64 222 -175 266 -216 26 -24 65 -59 87 -77 76 -61 215 -249 257 -348 25 -58 43 -122 37 -128 -20 -21 -367 16 -730 76 -101 16 -194 27 -207 24 -27 -7 -40 -28 -122 -186 -79 -153 -77 -144 -41 -170 30 -22 30 -22 66 20 20 24 51 49 69 56 38 17 130 18 296 4 227 -19 372 -30 467 -36 133 -8 236 -30 297 -65 29 -16 59 -29 67 -29 20 0 161 103 219 158 26 25 47 55 47 65 0 10 -17 39 -39 65 -21 26 -67 90 -102 142 -84 127 -169 238 -254 335 -38 43 -77 87 -85 97 -59 70 -200 201 -325 299 -72 57 -249 179 -260 179 -4 0 -26 13 -50 30 -24 16 -54 34 -67 39 -13 5 -72 32 -133 61 -162 78 -346 156 -490 210 -33 12 -74 29 -92 36 -18 8 -63 25 -100 38 -37 13 -142 49 -233 80 -91 32 -178 61 -195 66 -359 99 -378 103 -410 91z"></path><path id="pkhjDmtF4" d="M8505 2472 c-11 -2 -30 -13 -43 -25 -24 -22 -112 -181 -112 -202 0 -15 55 -39 69 -30 6 3 11 13 11 20 0 8 16 22 36 30 31 13 72 14 261 9 225 -7 225 -7 234 -31 5 -14 7 -28 4 -33 -3 -4 2 -30 10 -56 8 -27 18 -93 22 -147 7 -112 35 -104 -236 -70 -125 15 -125 15 -143 -9 -9 -12 -18 -28 -18 -33 0 -6 -13 -44 -29 -85 -27 -68 -28 -76 -13 -87 22 -18 49 -16 56 2 23 61 299 66 412 8 52 -26 52 -26 140 42 85 65 108 88 109 110 0 6 -14 29 -32 53 -20 26 -43 77 -58 130 -14 48 -32 109 -40 136 -8 26 -12 53 -9 58 9 15 100 1 145 -23 21 -10 49 -19 62 -19 52 0 177 121 177 171 0 15 -5 40 -10 55 -10 26 -12 26 -73 21 -34 -3 -96 -13 -137 -21 -41 -9 -120 -19 -175 -22 -123 -8 -401 11 -515 34 -47 10 -94 16 -105 14z"></path><path id="pXnwqo6UB" d="M7991 2389 c-25 -19 -59 -55 -76 -81 -33 -47 -33 -47 -27 -346 3 -199 1 -301 -5 -305 -14 -9 -243 36 -379 74 -107 30 -112 31 -137 14 -31 -20 -177 -210 -177 -229 0 -8 8 -23 18 -35 17 -21 17 -21 66 4 64 33 129 33 351 0 223 -33 233 -35 238 -48 5 -17 -17 -284 -25 -292 -7 -8 -107 12 -271 52 -107 27 -107 27 -138 -3 -30 -27 -124 -159 -135 -187 -2 -7 5 -25 16 -40 20 -26 20 -26 72 1 48 25 60 27 158 24 58 -1 146 -8 195 -15 106 -14 101 0 67 -196 -24 -136 -45 -177 -105 -207 -18 -9 -34 -18 -35 -20 -2 -1 1 -19 8 -38 13 -42 13 -42 170 -26 111 12 177 32 184 58 3 10 10 96 17 192 6 96 15 179 19 183 7 8 49 2 175 -25 28 -5 81 -27 118 -46 68 -37 68 -37 123 -8 156 82 150 188 -13 215 -37 7 -139 20 -226 30 -86 10 -159 20 -162 22 -2 3 1 72 7 153 13 165 -3 151 153 132 89 -11 183 -39 245 -73 65 -35 65 -35 115 -19 156 49 227 159 151 234 -24 25 -33 27 -168 33 -79 4 -208 15 -288 23 -80 9 -151 16 -157 16 -9 0 -13 18 -13 56 0 85 30 393 42 439 6 22 13 77 15 122 4 67 1 88 -16 120 -25 51 -42 64 -88 70 -33 4 -46 0 -82 -28z"></path><path id="poWt8D8tI" d="M5610 2371 c0 -4 19 -16 43 -25 23 -9 85 -44 137 -77 52 -34 141 -90 198 -125 279 -172 583 -444 708 -635 68 -103 122 -239 95 -239 -79 0 -570 66 -749 100 -149 29 -164 27 -202 -17 -17 -21 -42 -63 -56 -93 -15 -30 -39 -83 -55 -116 -16 -34 -29 -66 -28 -70 0 -5 13 -19 29 -32 29 -23 29 -23 68 20 39 41 42 42 112 46 126 7 711 -40 860 -69 30 -6 78 -24 106 -40 28 -16 58 -29 65 -29 8 0 61 35 119 78 97 72 140 116 140 142 0 5 -28 48 -62 93 -35 46 -91 124 -125 173 -157 226 -416 469 -648 609 -37 22 -89 55 -117 73 -83 56 -248 129 -417 187 -151 52 -221 66 -221 46z"></path><path id="pnXygEkvd" d="M1776 2255 c-26 -26 -19 -50 22 -77 68 -46 120 -106 156 -181 20 -41 36 -82 36 -91 0 -9 7 -19 15 -22 22 -9 242 45 256 62 14 18 -4 44 -32 44 -10 0 -53 36 -96 81 -68 71 -91 87 -188 134 -135 66 -148 70 -169 50z"></path><path id="pvLfcfZt4" d="M3310 2230 c-22 -31 -22 -31 13 -74 57 -69 116 -207 136 -320 13 -72 13 -66 0 -66 -23 0 -299 212 -299 230 0 10 -6 23 -14 29 -19 16 -46 -22 -46 -64 0 -18 -7 -78 -15 -135 -9 -56 -14 -108 -12 -114 2 -6 12 -11 23 -12 82 -4 75 22 72 -236 -3 -233 -3 -233 -33 -236 -32 -4 -45 -16 -45 -44 0 -14 9 -18 40 -18 45 0 43 7 40 -118 -1 -46 1 -121 5 -168 8 -86 8 -86 74 -80 140 13 162 18 168 34 4 10 -2 21 -15 30 -21 14 -22 22 -22 153 0 78 4 139 9 139 5 0 17 -20 27 -45 9 -25 20 -45 25 -45 5 0 15 13 24 30 26 51 35 35 35 -65 0 -107 -15 -98 115 -74 33 6 129 13 213 16 152 5 152 5 152 -121 0 -114 2 -126 18 -125 17 0 183 28 296 49 96 18 136 46 136 95 0 18 -9 44 -20 58 -26 32 -26 34 10 64 54 45 43 52 -92 55 -123 3 -123 3 -122 156 0 173 12 207 38 114 9 -32 16 -68 16 -81 0 -13 5 -21 13 -19 22 5 187 184 187 202 0 10 -12 21 -27 27 -23 8 -34 25 -62 97 -18 48 -49 116 -67 151 -33 64 -33 64 -14 120 11 30 20 57 20 58 0 2 9 3 19 3 13 0 24 -11 32 -35 14 -39 24 -42 56 -20 21 15 21 15 -5 81 -24 61 -25 68 -13 112 30 107 32 134 13 171 -29 55 -62 75 -111 66 -62 -10 -97 -46 -146 -151 -24 -52 -47 -94 -50 -94 -4 0 -54 38 -112 84 -125 101 -205 146 -229 131 -10 -6 -21 -21 -25 -33 -7 -17 -3 -25 19 -39 49 -33 178 -168 215 -225 75 -118 79 -131 68 -211 -6 -40 -18 -123 -26 -186 -8 -62 -17 -116 -19 -119 -3 -2 -12 -2 -19 1 -12 4 -16 43 -19 199 -4 209 -12 245 -65 300 -30 31 -68 45 -133 50 -45 3 -45 3 -50 -94 -3 -55 -10 -102 -17 -109 -17 -17 -40 -4 -47 28 -21 90 -90 234 -143 299 -18 23 -33 44 -33 48 0 11 -118 126 -129 126 -5 0 -19 -14 -31 -30z m172 -559 c3 -3 8 -100 10 -216 3 -210 3 -210 -57 -210 -60 0 -60 0 -63 209 -2 115 -1 215 2 223 5 11 17 13 53 7 27 -3 51 -9 55 -13z m254 11 c27 -18 37 -62 41 -183 4 -128 4 -128 -21 -135 -48 -12 -51 -4 -64 142 -16 186 -17 184 11 184 12 0 27 -4 33 -8z m256 -428 c-2 -43 -7 -106 -10 -139 -7 -60 -7 -60 -137 -60 -130 0 -130 0 -130 120 0 120 0 120 27 123 22 3 32 -4 50 -32 13 -20 28 -36 33 -36 6 0 42 25 80 55 39 30 75 53 80 52 6 -2 9 -36 7 -83z m257 -293 c27 -37 26 -60 -2 -102 -38 -56 -51 -45 -50 39 2 100 15 116 52 63z"></path><path id="pjWIbtjnX" d="M1586 2229 c-30 -26 -30 -23 5 -104 18 -41 49 -255 59 -400 5 -82 10 -318 10 -522 0 -429 -15 -386 120 -356 53 12 124 17 245 17 170 1 170 1 173 -68 3 -68 3 -68 80 -62 158 13 191 18 209 32 17 13 16 16 -20 48 -22 19 -36 40 -32 45 4 7 54 11 131 11 110 0 126 -2 132 -18 14 -34 56 -102 63 -102 10 0 172 140 182 157 15 25 -4 33 -79 33 -61 0 -80 4 -104 22 -18 13 -30 31 -30 45 0 20 5 23 35 23 28 0 37 -5 50 -31 9 -16 20 -29 25 -27 20 7 111 101 107 112 -2 7 -37 12 -90 14 -48 1 -87 7 -87 12 0 12 71 53 142 82 46 18 58 28 58 45 0 12 -6 26 -13 30 -8 4 -22 34 -32 66 -11 35 -23 57 -32 57 -17 0 -74 -62 -117 -127 -17 -26 -36 -48 -41 -48 -6 0 -11 29 -13 65 -2 46 -7 69 -19 78 -21 15 -125 16 -141 0 -7 -7 -12 -34 -12 -60 0 -26 -4 -48 -9 -48 -6 0 -30 13 -54 30 -24 16 -57 35 -73 41 -29 12 -29 12 1 20 17 4 42 11 58 14 34 7 35 30 0 47 -14 7 -28 19 -31 26 -3 9 22 12 104 12 106 0 109 0 139 -30 31 -30 31 -30 65 -6 19 13 68 44 108 70 40 25 76 54 79 63 4 11 -5 26 -30 47 -36 31 -36 31 -32 138 3 67 1 109 -5 113 -6 4 9 28 35 57 56 62 57 86 8 127 -41 34 -40 37 20 66 40 19 42 22 39 60 -7 88 -82 110 -352 102 -200 -5 -250 -15 -286 -54 -23 -25 -24 -30 -24 -209 0 -184 0 -184 -95 -184 -77 0 -97 3 -101 15 -10 25 -41 36 -114 41 -103 6 -100 13 -100 -232 0 -204 0 -204 53 -203 28 0 104 6 167 13 63 7 120 11 126 9 6 -2 15 -30 20 -61 5 -31 14 -57 19 -57 29 -1 63 -36 116 -118 32 -50 59 -94 59 -98 0 -4 -18 -9 -40 -13 -47 -7 -210 4 -210 15 0 4 22 15 48 23 68 23 92 42 92 74 0 31 -22 67 -50 82 -17 9 -23 5 -45 -30 -14 -22 -30 -40 -35 -40 -6 0 -10 27 -10 60 0 76 -20 93 -107 88 -58 -3 -58 -3 -61 -50 -3 -53 -17 -61 -48 -27 -34 37 -114 91 -128 86 -17 -7 -23 25 -25 148 -2 92 -33 312 -53 375 -38 122 -108 273 -150 324 -24 28 -24 28 -52 5z m1191 -168 c26 -13 40 -51 23 -61 -6 -4 -42 -1 -78 6 -37 6 -100 17 -139 24 -76 12 -100 26 -61 34 13 3 32 7 43 10 35 9 190 -1 212 -13z m-213 -149 c8 -16 16 -46 18 -68 3 -39 3 -39 -39 -42 -43 -3 -43 -3 -43 67 0 69 1 71 25 71 17 0 29 -9 39 -28z m210 9 c11 -17 -6 -41 -27 -41 -21 0 -57 26 -57 42 0 11 77 10 84 -1z m-504 -226 c0 -45 0 -45 -75 -45 -75 0 -75 0 -75 45 0 45 0 45 75 45 75 0 75 0 75 -45z m388 -2 c3 -43 3 -43 -92 -43 -95 0 -95 0 -92 28 2 15 4 35 5 45 1 16 10 17 89 15 87 -3 87 -3 90 -45z m-384 -128 c-3 -71 3 -66 -76 -63 -72 3 -73 3 -76 31 -6 53 1 58 80 55 66 -3 73 -5 72 -23z m379 15 c5 0 7 -17 5 -37 -3 -38 -3 -38 -88 -38 -84 0 -84 0 -91 32 -9 47 5 55 91 49 41 -3 79 -5 83 -6z m-733 -363 c54 -112 53 -117 -15 -117 -55 0 -55 0 -55 100 0 128 14 132 70 17z m543 -187 c87 0 87 0 87 -45 0 -45 0 -45 -144 -45 -130 0 -146 2 -170 21 -27 21 -34 53 -14 65 6 4 19 -2 29 -14 22 -28 30 -28 60 4 16 17 30 23 44 20 11 -3 59 -6 108 -6z m-425 -47 c3 -43 3 -43 -92 -43 -96 0 -96 0 -96 38 0 21 3 42 7 46 4 4 46 5 93 4 85 -3 85 -3 88 -45z"></path><path id="p05vA2qcl" d="M605 2230 c-88 -8 -108 -15 -144 -54 -24 -25 -24 -27 -25 -250 -1 -123 2 -227 5 -230 5 -6 163 15 227 29 28 7 29 40 2 55 -18 9 -20 21 -20 93 0 51 5 89 13 99 10 14 39 18 167 21 199 5 206 2 225 -90 5 -27 11 -33 32 -33 24 0 25 2 19 44 -6 40 -4 46 24 70 17 14 39 26 49 26 9 0 25 6 36 14 17 12 17 17 5 73 -17 74 -23 84 -80 114 -43 22 -55 24 -250 25 -113 1 -241 -2 -285 -6z"></path><path id="pwwmKiXg4" d="M4848 2196 c-36 -19 -57 -41 -101 -106 -46 -68 -56 -129 -32 -185 15 -36 17 -118 22 -810 6 -853 7 -827 -58 -863 -66 -37 -66 -36 -46 -77 18 -37 18 -37 65 -30 93 13 218 48 265 73 49 26 49 26 42 82 -4 30 -9 202 -11 381 -5 327 -5 327 63 334 247 26 445 95 506 176 23 32 25 120 4 172 -23 54 -84 107 -124 107 -36 0 -35 0 -202 -159 -99 -96 -224 -186 -244 -178 -17 6 -21 462 -7 657 24 325 24 327 6 374 -16 43 -38 62 -57 50 -5 -3 -9 0 -9 5 0 16 -50 13 -82 -3z"></path><path id="pdSnyBaGn" d="M168 2108 c-22 -24 -46 -56 -54 -71 -15 -27 -14 -29 47 -95 33 -37 77 -98 96 -135 28 -57 38 -68 56 -65 27 4 35 47 36 193 1 146 -33 214 -108 215 -27 0 -42 -8 -73 -42z"></path><path id="p7qFWYi3O" d="M1311 2092 c-6 -12 -11 -27 -11 -35 0 -22 -85 -188 -124 -242 -32 -45 -34 -51 -20 -66 15 -16 20 -16 87 3 147 40 227 110 227 196 0 80 -45 138 -122 157 -20 5 -29 2 -37 -13z"></path><path id="p18eOksnLm" d="M873 1918 c-5 -7 -24 -39 -42 -70 -17 -31 -52 -79 -77 -107 -35 -39 -44 -55 -39 -72 6 -19 12 -21 59 -15 82 11 173 45 206 78 57 57 29 147 -57 183 -43 18 -38 18 -50 3z"></path><path id="pajMUq4RQ" d="M120 1608 c0 -7 -3 -23 -6 -35 -6 -23 -6 -23 192 -25 199 -3 199 -3 202 -95 3 -93 3 -93 -47 -93 -35 0 -53 5 -59 16 -12 22 -133 41 -166 26 -26 -12 -26 -12 -26 -202 0 -104 3 -190 8 -190 4 0 48 7 97 16 144 25 185 31 190 26 3 -3 5 -38 5 -79 0 -73 0 -73 -185 -73 -185 0 -185 0 -195 -26 -6 -14 -7 -31 -4 -36 5 -8 165 -9 540 -5 602 6 540 15 584 -80 14 -29 28 -52 33 -53 11 0 188 160 194 177 3 8 2 17 -2 21 -4 4 -95 7 -203 7 -197 0 -197 0 -197 75 0 75 0 75 47 78 46 3 47 2 73 -42 15 -26 31 -46 36 -46 14 0 209 142 209 153 0 5 -13 22 -30 37 -29 27 -30 30 -30 123 0 92 -1 96 -27 117 -22 17 -38 20 -97 18 -66 -3 -71 -5 -76 -28 -5 -23 -11 -25 -55 -25 -50 0 -50 0 -53 93 -3 92 -3 92 77 92 80 0 80 0 116 -55 19 -30 41 -55 48 -55 23 0 182 154 173 168 -11 18 -1366 17 -1366 0z m730 -154 c0 -94 0 -94 -60 -94 -60 0 -60 0 -60 85 0 47 -1 88 -2 93 -3 7 101 20 115 14 4 -2 7 -46 7 -98z m-345 -249 c0 -80 0 -80 -45 -80 -45 0 -45 0 -48 69 -4 93 -1 98 50 94 43 -3 43 -3 43 -83z m353 4 c3 -76 3 -76 -50 -81 -29 -3 -58 -3 -65 -1 -9 4 -13 30 -13 85 0 79 0 79 63 76 62 -3 62 -3 65 -79z m313 69 c0 -7 1 -42 2 -78 2 -65 2 -65 -50 -68 -53 -3 -53 -3 -53 71 0 40 3 77 7 80 12 13 93 8 94 -5z m-320 -227 c4 -1 6 -34 5 -73 -1 -73 -1 -73 -61 -73 -60 0 -60 0 -63 72 -3 72 -3 72 30 75 28 3 63 2 89 -1z"></path><path id="pVR3L11tE" d="M9799 1185 c-22 -12 -109 -132 -109 -150 0 -3 -11 -28 -25 -57 -23 -48 -24 -53 -8 -70 21 -23 40 -23 52 1 18 32 84 51 179 51 120 -1 275 -23 347 -50 33 -13 83 -25 110 -27 43 -4 56 0 98 28 126 84 138 189 25 217 -24 6 -126 18 -228 27 -102 8 -234 22 -293 30 -127 18 -116 18 -148 0z"></path><path id="pzx24bgR1" d="M5296 808 c-16 -50 -44 -118 -63 -151 -18 -32 -33 -62 -33 -66 0 -10 57 -51 70 -51 24 0 135 64 175 101 76 70 85 155 22 204 -38 28 -98 55 -125 55 -14 0 -24 -20 -46 -92z"></path><path id="p7gbfVnjE" d="M6145 821 c-17 -10 -40 -29 -52 -42 -28 -32 -103 -169 -103 -191 0 -10 11 -25 25 -34 24 -16 27 -16 48 3 45 42 68 48 175 46 128 -3 265 -26 347 -58 83 -34 130 -32 186 4 83 56 119 134 82 179 -21 26 -76 38 -243 52 -103 9 -363 43 -415 55 -12 2 -34 -4 -50 -14z"></path><path id="p15HLiiZHU" d="M5604 723 c-15 -63 -83 -180 -143 -245 -25 -28 -25 -28 -1 -53 36 -38 54 -39 124 -6 182 88 237 221 122 299 -61 41 -93 42 -102 5z"></path></g></g></svg>